ffmpeg version 4.4.2-0ubuntu0.22.04.1 Copyright (c) 2000-2021 the FFmpeg developers
  built with gcc 11 (Ubuntu 11.2.0-19ubuntu1)
  configuration: --prefix=/usr --extra-version=0ubuntu0.22.04.1 --toolchain=hardened --libdir=/usr/lib/x86_64-linux-gnu --incdir=/usr/include/x86_64-linux-gnu --arch=amd64 --enable-gpl --disable-stripping --enable-gnutls --enable-ladspa --enable-libaom --enable-libass --enable-libbluray --enable-libbs2b --enable-libcaca --enable-libcdio --enable-libcodec2 --enable-libdav1d --enable-libflite --enable-libfontconfig --enable-libfreetype --enable-libfribidi --enable-libgme --enable-libgsm --enable-libjack --enable-libmp3lame --enable-libmysofa --enable-libopenjpeg --enable-libopenmpt --enable-libopus --enable-libpulse --enable-librabbitmq --enable-librubberband --enable-libshine --enable-libsnappy --enable-libsoxr --enable-libspeex --enable-libsrt --enable-libssh --enable-libtheora --enable-libtwolame --enable-libvidstab --enable-libvorbis --enable-libvpx --enable-libwebp --enable-libx265 --enable-libxml2 --enable-libxvid --enable-libzimg --enable-libzmq --enable-libzvbi --enable-lv2 --enable-omx --enable-openal --enable-opencl --enable-opengl --enable-sdl2 --enable-pocketsphinx --enable-librsvg --enable-libmfx --enable-libdc1394 --enable-libdrm --enable-libiec61883 --enable-chromaprint --enable-frei0r --enable-libx264 --enable-shared
  libavutil      56. 70.100 / 56. 70.100
  libavcodec     58.134.100 / 58.134.100
  libavformat    58. 76.100 / 58. 76.100
  libavdevice    58. 13.100 / 58. 13.100
  libavfilter     7.110.100 /  7.110.100
  libswscale      5.  9.100 /  5.  9.100
  libswresample   3.  9.100 /  3.  9.100
  libpostproc    55.  9.100 / 55.  9.100
Input #0, flv, from '/storage/32426326/20250614/32426326-20250614-131016-138.flv':
  Metadata:
    Rawdata         : 
    profile         : 
    displayHeight   : 1440
    encoder         : obs-output module (libobs version 31.0.2)
    fps             : 60
    displayWidth    : 2560
    cdn_ip          : 192.168.252.5
    level           : 
    Title           : 技术主播没有GG
    Artist          : 蓝音BuBuLine (32426326)
    Comment         : mikufans直播间 32426326 的直播录像
                    : 主播名: 蓝音BuBuLine
                    : 直播标题: 技术主播没有GG
                    : 直播分区: 单机游戏·主机游戏
                    : 录制时间: 2025-06-14T13:10:16.1469644+00:00
                    : 直播服务器:
                    : d1--ov-gotcha07b.bilivideo.com [156.59.188.245]
                    : 
                    : 使用 mikufans录播姬 录制 https://rec.danmuji.org
                    : 录播姬版本: 2.11.0
    RecordedBy      : BililiveRecorder mikufans录播姬
    RecordedFrom    : d1--ov-gotcha07b.bilivideo.com
    StreamServers   : d1--ov-gotcha07b.bilivideo.com [156.59.188.245]
    RecorderVersion : 2.11.0+Branch.tags-v2.11.0.Sha.d32ebb97483b1ae77acfc6dbcfef17bd64913ccd
    StartTime       : Sat, 14 Jun 2025 13:10:16 +0000
    RoomId          : 32426326
    ShortId         : 0
    Name            : 蓝音BuBuLine
    StreamTitle     : 技术主播没有GG
    AreaNameParent  : 单机游戏
    AreaNameChild   : 主机游戏
  Duration: 07:41:46.68, start: 0.035000, bitrate: 8900 kb/s
  Stream #0:0: Video: h264 (High), yuv420p(tv, bt709, progressive), 2560x1440 [SAR 1:1 DAR 16:9], 10240 kb/s, 60 fps, 60 tbr, 1k tbn, 120 tbc
  Stream #0:1: Audio: aac (LC), 48000 Hz, stereo, fltp, 196 kb/s
Stream mapping:
  Stream #0:0 -> #0:0 (h264 (native) -> png (native))
Press [q] to stop, [?] for help
Output #0, image2, to '/storage/32426326/20250614/32426326-20250614-131016-138.all.thumb.png':
  Metadata:
    Rawdata         : 
    profile         : 
    displayHeight   : 1440
    AreaNameChild   : 主机游戏
    fps             : 60
    displayWidth    : 2560
    cdn_ip          : 192.168.252.5
    level           : 
    Title           : 技术主播没有GG
    Artist          : 蓝音BuBuLine (32426326)
    Comment         : mikufans直播间 32426326 的直播录像
                    : 主播名: 蓝音BuBuLine
                    : 直播标题: 技术主播没有GG
                    : 直播分区: 单机游戏·主机游戏
                    : 录制时间: 2025-06-14T13:10:16.1469644+00:00
                    : 直播服务器:
                    : d1--ov-gotcha07b.bilivideo.com [156.59.188.245]
                    : 
                    : 使用 mikufans录播姬 录制 https://rec.danmuji.org
                    : 录播姬版本: 2.11.0
    RecordedBy      : BililiveRecorder mikufans录播姬
    RecordedFrom    : d1--ov-gotcha07b.bilivideo.com
    StreamServers   : d1--ov-gotcha07b.bilivideo.com [156.59.188.245]
    RecorderVersion : 2.11.0+Branch.tags-v2.11.0.Sha.d32ebb97483b1ae77acfc6dbcfef17bd64913ccd
    StartTime       : Sat, 14 Jun 2025 13:10:16 +0000
    RoomId          : 32426326
    ShortId         : 0
    Name            : 蓝音BuBuLine
    StreamTitle     : 技术主播没有GG
    AreaNameParent  : 单机游戏
    encoder         : Lavf58.76.100
  Stream #0:0: Video: png, rgb24(pc, gbr/bt709/bt709, progressive), 2560x1440 [SAR 1:1 DAR 16:9], q=2-31, 200 kb/s, 60 fps, 60 tbn
    Metadata:
      encoder         : Lavc58.134.100 png
frame=    1 fps=0.0 q=0.0 size=N/A time=00:00:00.00 bitrate=N/A speed=   0x    frame=    1 fps=0.0 q=-0.0 Lsize=N/A time=00:00:00.01 bitrate=N/A speed=0.0324x    
video:5423kB audio:0kB subtitle:0kB other streams:0kB global headers:0kB muxing overhead: unknown
ffmpeg version 4.4.2-0ubuntu0.22.04.1 Copyright (c) 2000-2021 the FFmpeg developers
  built with gcc 11 (Ubuntu 11.2.0-19ubuntu1)
  configuration: --prefix=/usr --extra-version=0ubuntu0.22.04.1 --toolchain=hardened --libdir=/usr/lib/x86_64-linux-gnu --incdir=/usr/include/x86_64-linux-gnu --arch=amd64 --enable-gpl --disable-stripping --enable-gnutls --enable-ladspa --enable-libaom --enable-libass --enable-libbluray --enable-libbs2b --enable-libcaca --enable-libcdio --enable-libcodec2 --enable-libdav1d --enable-libflite --enable-libfontconfig --enable-libfreetype --enable-libfribidi --enable-libgme --enable-libgsm --enable-libjack --enable-libmp3lame --enable-libmysofa --enable-libopenjpeg --enable-libopenmpt --enable-libopus --enable-libpulse --enable-librabbitmq --enable-librubberband --enable-libshine --enable-libsnappy --enable-libsoxr --enable-libspeex --enable-libsrt --enable-libssh --enable-libtheora --enable-libtwolame --enable-libvidstab --enable-libvorbis --enable-libvpx --enable-libwebp --enable-libx265 --enable-libxml2 --enable-libxvid --enable-libzimg --enable-libzmq --enable-libzvbi --enable-lv2 --enable-omx --enable-openal --enable-opencl --enable-opengl --enable-sdl2 --enable-pocketsphinx --enable-librsvg --enable-libmfx --enable-libdc1394 --enable-libdrm --enable-libiec61883 --enable-chromaprint --enable-frei0r --enable-libx264 --enable-shared
  libavutil      56. 70.100 / 56. 70.100
  libavcodec     58.134.100 / 58.134.100
  libavformat    58. 76.100 / 58. 76.100
  libavdevice    58. 13.100 / 58. 13.100
  libavfilter     7.110.100 /  7.110.100
  libswscale      5.  9.100 /  5.  9.100
  libswresample   3.  9.100 /  3.  9.100
  libpostproc    55.  9.100 / 55.  9.100
[flv @ 0x55dbcfb26fc0] Auto-inserting h264_mp4toannexb bitstream filter
Input #0, concat, from '/storage/32426326/20250614/32426326-20250614-131016-138.all.concat.txt':
  Duration: N/A, start: 0.000000, bitrate: 10436 kb/s
  Stream #0:0: Video: h264 (High), yuv420p(tv, bt709, progressive), 2560x1440 [SAR 1:1 DAR 16:9], 10240 kb/s, 60 fps, 60 tbr, 1k tbn, 120 tbc
  Stream #0:1: Audio: aac (LC), 48000 Hz, stereo, fltp, 196 kb/s
Output #0, flv, to '/storage/32426326/20250614/32426326-20250614-131016-138.all.flv':
  Metadata:
    encoder         : Lavf58.76.100
  Stream #0:0: Video: h264 (High) ([7][0][0][0] / 0x0007), yuv420p(tv, bt709, progressive), 2560x1440 [SAR 1:1 DAR 16:9], q=2-31, 10240 kb/s, 60 fps, 60 tbr, 1k tbn, 1k tbc
  Stream #0:1: Audio: aac (LC) ([10][0][0][0] / 0x000A), 48000 Hz, stereo, fltp, 196 kb/s
Stream mapping:
  Stream #0:0 -> #0:0 (copy)
  Stream #0:1 -> #0:1 (copy)
Press [q] to stop, [?] for help
frame=    1 fps=0.0 q=-1.0 size=       0kB time=00:00:00.00 bitrate=N/A speed=N/A    frame= 3770 fps=0.0 q=-1.0 size=   36352kB time=00:01:02.98 bitrate=4728.4kbits/s speed= 126x    frame= 5527 fps=5521 q=-1.0 size=   72704kB time=00:01:32.26 bitrate=6455.4kbits/s speed=92.2x    frame= 7361 fps=4903 q=-1.0 size=  109568kB time=00:02:02.84 bitrate=7306.9kbits/s speed=81.8x    frame= 9289 fps=4640 q=-1.0 size=  147456kB time=00:02:34.96 bitrate=7795.1kbits/s speed=77.4x    frame=11584 fps=4630 q=-1.0 size=  187648kB time=00:03:13.22 bitrate=7955.8kbits/s speed=77.2x    frame=13481 fps=4490 q=-1.0 size=  227072kB time=00:03:44.83 bitrate=8273.7kbits/s speed=74.9x    frame=15351 fps=4383 q=-1.0 size=  265728kB time=00:04:16.00 bitrate=8503.2kbits/s speed=73.1x    frame=17390 fps=4344 q=-1.0 size=  308480kB time=00:04:49.98 bitrate=8714.6kbits/s speed=72.4x    frame=19521 fps=4335 q=-1.0 size=  352768kB time=00:05:25.50 bitrate=8878.0kbits/s speed=72.3x    frame=21394 fps=4276 q=-1.0 size=  391424kB time=00:05:56.71 bitrate=8989.0kbits/s speed=71.3x    frame=23489 fps=4268 q=-1.0 size=  435200kB time=00:06:31.64 bitrate=9103.1kbits/s speed=71.2x    frame=25523 fps=4251 q=-1.0 size=  477440kB time=00:07:05.53 bitrate=9191.3kbits/s speed=70.9x    frame=27517 fps=4231 q=-1.0 size=  518912kB time=00:07:38.77 bitrate=9265.8kbits/s speed=70.5x    frame=29523 fps=4215 q=-1.0 size=  560896kB time=00:08:12.20 bitrate=9335.2kbits/s speed=70.3x    frame=31484 fps=4195 q=-1.0 size=  601088kB time=00:08:44.88 bitrate=9381.2kbits/s speed=69.9x    frame=33453 fps=4179 q=-1.0 size=  641792kB time=00:09:17.70 bitrate=9427.2kbits/s speed=69.7x    frame=35465 fps=4170 q=-1.0 size=  683776kB time=00:09:51.23 bitrate=9474.3kbits/s speed=69.5x    frame=37286 fps=4141 q=-1.0 size=  721664kB time=00:10:21.59 bitrate=9510.8kbits/s speed=  69x    frame=39297 fps=4134 q=-1.0 size=  763392kB time=00:10:55.10 bitrate=9546.1kbits/s speed=68.9x    frame=41297 fps=4128 q=-1.0 size=  804864kB time=00:11:28.43 bitrate=9577.5kbits/s speed=68.8x    frame=43402 fps=4131 q=-1.0 size=  844032kB time=00:12:03.52 bitrate=9556.4kbits/s speed=68.9x    frame=45521 fps=4136 q=-1.0 size=  886528kB time=00:12:38.83 bitrate=9570.6kbits/s speed=68.9x    frame=47931 fps=4166 q=-1.0 size=  927232kB time=00:13:18.99 bitrate=9506.8kbits/s speed=69.4x    frame=49946 fps=4160 q=-1.0 size=  968960kB time=00:13:52.58 bitrate=9533.9kbits/s speed=69.3x    frame=52005 fps=4158 q=-1.0 size= 1011712kB time=00:14:26.89 bitrate=9560.5kbits/s speed=69.3x    frame=53876 fps=4142 q=-1.0 size= 1050624kB time=00:14:58.09 bitrate=9583.3kbits/s speed=  69x    frame=55767 fps=4128 q=-1.0 size= 1090048kB time=00:15:29.59 bitrate=9606.0kbits/s speed=68.8x    frame=57745 fps=4122 q=-1.0 size= 1131008kB time=00:16:02.56 bitrate=9625.6kbits/s speed=68.7x    frame=59576 fps=4106 q=-1.0 size= 1168896kB time=00:16:33.09 bitrate=9642.2kbits/s speed=68.4x    frame=61578 fps=4103 q=-1.0 size= 1210624kB time=00:17:06.45 bitrate=9661.8kbits/s speed=68.4x    frame=63527 fps=4096 q=-1.0 size= 1251328kB time=00:17:38.93 bitrate=9680.4kbits/s speed=68.3x    frame=65423 fps=4086 q=-1.0 size= 1290496kB time=00:18:10.54 bitrate=9694.0kbits/s speed=68.1x    frame=67374 fps=4081 q=-1.0 size= 1331456kB time=00:18:43.05 bitrate=9712.2kbits/s speed=  68x    frame=69231 fps=4070 q=-1.0 size= 1369600kB time=00:19:14.00 bitrate=9722.4kbits/s speed=67.8x    frame=71131 fps=4062 q=-1.0 size= 1409024kB time=00:19:45.66 bitrate=9735.2kbits/s speed=67.7x    frame=73076 fps=4057 q=-1.0 size= 1449728kB time=00:20:18.09 bitrate=9749.8kbits/s speed=67.6x    frame=74843 fps=4043 q=-1.0 size= 1486592kB time=00:20:47.53 bitrate=9761.8kbits/s speed=67.4x    frame=76850 fps=4042 q=-1.0 size= 1528064kB time=00:21:20.98 bitrate=9772.1kbits/s speed=67.4x    frame=79044 fps=4051 q=-1.0 size= 1569280kB time=00:21:57.54 bitrate=9757.2kbits/s speed=67.5x    frame=80896 fps=4043 q=-1.0 size= 1606400kB time=00:22:28.42 bitrate=9759.3kbits/s speed=67.4x    frame=83291 fps=4061 q=-1.0 size= 1648640kB time=00:23:08.33 bitrate=9728.0kbits/s speed=67.7x    frame=85187 fps=4054 q=-1.0 size= 1688064kB time=00:23:39.93 bitrate=9738.9kbits/s speed=67.6x    frame=86955 fps=4042 q=-1.0 size= 1724928kB time=00:24:09.39 bitrate=9749.3kbits/s speed=67.4x    frame=88968 fps=4042 q=-1.0 size= 1766656kB time=00:24:42.94 bitrate=9759.2kbits/s speed=67.4x    frame=90847 fps=4035 q=-1.0 size= 1805568kB time=00:25:14.26 bitrate=9767.9kbits/s speed=67.3x    frame=92883 fps=4036 q=-1.0 size= 1848064kB time=00:25:48.19 bitrate=9778.7kbits/s speed=67.3x    frame=94931 fps=4037 q=-1.0 size= 1890560kB time=00:26:22.34 bitrate=9787.7kbits/s speed=67.3x    frame=96945 fps=4037 q=-1.0 size= 1932288kB time=00:26:55.89 bitrate=9796.0kbits/s speed=67.3x    frame=98969 fps=4037 q=-1.0 size= 1974784kB time=00:27:29.63 bitrate=9806.7kbits/s speed=67.3x    frame=100960 fps=4036 q=-1.0 size= 2016000kB time=00:28:02.81 bitrate=9814.0kbits/s speed=67.3x    frame=102545 fps=4019 q=-1.0 size= 2049024kB time=00:28:29.23 bitrate=9820.6kbits/s speed=  67x    frame=104182 fps=4005 q=-1.0 size= 2083072kB time=00:28:56.51 bitrate=9826.9kbits/s speed=66.8x    frame=106057 fps=4000 q=-1.0 size= 2121984kB time=00:29:27.76 bitrate=9833.5kbits/s speed=66.7x    frame=108061 fps=4000 q=-1.0 size= 2163456kB time=00:30:01.17 bitrate=9839.7kbits/s speed=66.7x    frame=110047 fps=4000 q=-1.0 size= 2204672kB time=00:30:34.26 bitrate=9846.3kbits/s speed=66.7x    frame=111831 fps=3992 q=-1.0 size= 2242048kB time=00:31:03.99 bitrate=9853.5kbits/s speed=66.5x    frame=113664 fps=3986 q=-1.0 size= 2279680kB time=00:31:34.55 bitrate=9857.3kbits/s speed=66.4x    frame=115563 fps=3983 q=-1.0 size= 2319104kB time=00:32:06.19 bitrate=9863.0kbits/s speed=66.4x    frame=117674 fps=3987 q=-1.0 size= 2356992kB time=00:32:41.39 bitrate=9844.3kbits/s speed=66.5x    frame=119648 fps=3986 q=-1.0 size= 2397952kB time=00:33:14.28 bitrate=9850.2kbits/s speed=66.4x    frame=122038 fps=3999 q=-1.0 size= 2438144kB time=00:33:54.11 bitrate=9819.1kbits/s speed=66.7x    frame=123875 fps=3994 q=-1.0 size= 2476288kB time=00:34:24.73 bitrate=9824.9kbits/s speed=66.6x    frame=125867 fps=3994 q=-1.0 size= 2517504kB time=00:34:57.94 bitrate=9830.3kbits/s speed=66.6x    frame=127644 fps=3987 q=-1.0 size= 2554624kB time=00:35:27.55 bitrate=9836.4kbits/s speed=66.5x    frame=129527 fps=3983 q=-1.0 size= 2593792kB time=00:35:58.93 bitrate=9842.1kbits/s speed=66.4x    frame=131485 fps=3982 q=-1.0 size= 2634496kB time=00:36:31.57 bitrate=9847.6kbits/s speed=66.4x    frame=133455 fps=3982 q=-1.0 size= 2672896kB time=00:37:04.39 bitrate=9843.7kbits/s speed=66.4x    frame=135601 fps=3986 q=-1.0 size= 2713856kB time=00:37:40.16 bitrate=9836.4kbits/s speed=66.4x    frame=138072 fps=4000 q=-1.0 size= 2755072kB time=00:38:21.35 bitrate=9807.1kbits/s speed=66.7x    frame=139822 fps=3993 q=-1.0 size= 2791424kB time=00:38:50.51 bitrate=9812.2kbits/s speed=66.6x    frame=141953 fps=3997 q=-1.0 size= 2835712kB time=00:39:26.03 bitrate=9818.2kbits/s speed=66.6x    frame=143894 fps=3995 q=-1.0 size= 2876160kB time=00:39:58.38 bitrate=9823.9kbits/s speed=66.6x    frame=145883 fps=3995 q=-1.0 size= 2917376kB time=00:40:31.53 bitrate=9828.9kbits/s speed=66.6x    frame=147949 fps=3997 q=-1.0 size= 2960384kB time=00:41:05.96 bitrate=9834.5kbits/s speed=66.6x    frame=149791 fps=3992 q=-1.0 size= 2998528kB time=00:41:36.66 bitrate=9838.7kbits/s speed=66.5x    frame=151779 fps=3992 q=-1.0 size= 3040000kB time=00:42:09.79 bitrate=9844.1kbits/s speed=66.5x    frame=153834 fps=3994 q=-1.0 size= 3082496kB time=00:42:44.05 bitrate=9848.4kbits/s speed=66.6x    frame=155581 fps=3987 q=-1.0 size= 3118848kB time=00:43:13.17 bitrate=9852.6kbits/s speed=66.5x    frame=157670 fps=3990 q=-1.0 size= 3162624kB time=00:43:47.98 bitrate=9858.6kbits/s speed=66.5x    frame=159421 fps=3984 q=-1.0 size= 3198720kB time=00:44:17.16 bitrate=9861.6kbits/s speed=66.4x    frame=161357 fps=3982 q=-1.0 size= 3238912kB time=00:44:49.43 bitrate=9865.7kbits/s speed=66.4x    frame=163279 fps=3980 q=-1.0 size= 3278848kB time=00:45:21.47 bitrate=9869.8kbits/s speed=66.3x    frame=165161 fps=3978 q=-1.0 size= 3318016kB time=00:45:52.83 bitrate=9873.9kbits/s speed=66.3x    frame=167016 fps=3975 q=-1.0 size= 3356672kB time=00:46:23.74 bitrate=9878.0kbits/s speed=66.2x    frame=169329 fps=3982 q=-1.0 size= 3398656kB time=00:47:02.29 bitrate=9864.9kbits/s speed=66.4x    frame=171329 fps=3982 q=-1.0 size= 3439616kB time=00:47:35.64 bitrate=9867.3kbits/s speed=66.4x    frame=173621 fps=3989 q=-1.0 size= 3481344kB time=00:48:13.83 bitrate=9855.2kbits/s speed=66.5x    frame=175430 fps=3985 q=-1.0 size= 3519232kB time=00:48:43.98 bitrate=9859.7kbits/s speed=66.4x    frame=177170 fps=3979 q=-1.0 size= 3555328kB time=00:49:12.98 bitrate=9863.0kbits/s speed=66.3x    frame=179161 fps=3979 q=-1.0 size= 3596544kB time=00:49:46.16 bitrate=9866.5kbits/s speed=66.3x    frame=181075 fps=3978 q=-1.0 size= 3636224kB time=00:50:18.07 bitrate=9869.9kbits/s speed=66.3x    frame=182755 fps=3971 q=-1.0 size= 3671040kB time=00:50:46.06 bitrate=9872.8kbits/s speed=66.2x    frame=184719 fps=3970 q=-1.0 size= 3712000kB time=00:51:18.80 bitrate=9876.8kbits/s speed=66.2x    frame=186620 fps=3969 q=-1.0 size= 3751424kB time=00:51:50.48 bitrate=9880.0kbits/s speed=66.1x    frame=188603 fps=3969 q=-1.0 size= 3792640kB time=00:52:23.53 bitrate=9883.6kbits/s speed=66.1x    frame=190627 fps=3969 q=-1.0 size= 3835136kB time=00:52:57.26 bitrate=9888.2kbits/s speed=66.2x    frame=192358 fps=3964 q=-1.0 size= 3870976kB time=00:53:26.11 bitrate=9890.8kbits/s speed=66.1x    frame=194276 fps=3963 q=-1.0 size= 3910656kB time=00:53:58.08 bitrate=9893.5kbits/s speed=  66x    frame=196150 fps=3960 q=-1.0 size= 3949312kB time=00:54:29.31 bitrate=9895.9kbits/s speed=  66x    frame=197820 fps=3954 q=-1.0 size= 3984384kB time=00:54:57.14 bitrate=9899.5kbits/s speed=65.9x    frame=199653 fps=3951 q=-1.0 size= 4022528kB time=00:55:27.70 bitrate=9902.5kbits/s speed=65.9x    frame=201496 fps=3949 q=-1.0 size= 4060672kB time=00:55:58.41 bitrate=9905.0kbits/s speed=65.8x    frame=203749 fps=3954 q=-1.0 size= 4101888kB time=00:56:35.96 bitrate=9894.9kbits/s speed=65.9x    frame=205990 fps=3959 q=-1.0 size= 4145408kB time=00:57:13.31 bitrate=9891.1kbits/s speed=  66x    frame=208161 fps=3963 q=-1.0 size= 4184576kB time=00:57:49.49 bitrate=9880.4kbits/s speed=  66x    frame=210070 fps=3961 q=-1.0 size= 4224256kB time=00:58:21.31 bitrate=9883.5kbits/s speed=  66x    frame=212064 fps=3962 q=-1.0 size= 4265728kB time=00:58:54.54 bitrate=9886.7kbits/s speed=  66x    frame=213801 fps=3957 q=-1.0 size= 4301824kB time=00:59:23.50 bitrate=9889.3kbits/s speed=  66x    frame=215735 fps=3956 q=-1.0 size= 4342016kB time=00:59:55.73 bitrate=9892.2kbits/s speed=65.9x    frame=217514 fps=3952 q=-1.0 size= 4379136kB time=01:00:25.38 bitrate=9895.2kbits/s speed=65.9x    frame=219591 fps=3954 q=-1.0 size= 4422144kB time=01:00:59.99 bitrate=9897.9kbits/s speed=65.9x    frame=221517 fps=3953 q=-1.0 size= 4462080kB time=01:01:32.10 bitrate=9900.4kbits/s speed=65.9x    frame=223570 fps=3955 q=-1.0 size= 4504832kB time=01:02:06.31 bitrate=9903.5kbits/s speed=65.9x    frame=225578 fps=3955 q=-1.0 size= 4546560kB time=01:02:39.78 bitrate=9906.3kbits/s speed=65.9x    frame=227476 fps=3954 q=-1.0 size= 4585984kB time=01:03:11.41 bitrate=9908.8kbits/s speed=65.9x    frame=229382 fps=3952 q=-1.0 size= 4625408kB time=01:03:43.19 bitrate=9910.9kbits/s speed=65.9x    frame=231755 fps=3959 q=-1.0 size= 4669952kB time=01:04:22.74 bitrate=9903.9kbits/s speed=  66x    frame=234061 fps=3965 q=-1.0 size= 4709376kB time=01:05:01.16 bitrate=9889.2kbits/s speed=66.1x    frame=236086 fps=3965 q=-1.0 size= 4748800kB time=01:05:34.91 bitrate=9886.4kbits/s speed=66.1x    frame=238044 fps=3965 q=-1.0 size= 4789504kB time=01:06:07.54 bitrate=9889.1kbits/s speed=66.1x    frame=239787 fps=3961 q=-1.0 size= 4825600kB time=01:06:36.61 bitrate=9891.2kbits/s speed=  66x    frame=241560 fps=3958 q=-1.0 size= 4862464kB time=01:07:06.15 bitrate=9893.6kbits/s speed=  66x    frame=243364 fps=3955 q=-1.0 size= 4900096kB time=01:07:36.21 bitrate=9896.3kbits/s speed=65.9x    frame=245183 fps=3952 q=-1.0 size= 4937984kB time=01:08:06.53 bitrate=9898.8kbits/s speed=65.9x    frame=247118 fps=3951 q=-1.0 size= 4978176kB time=01:08:38.78 bitrate=9901.3kbits/s speed=65.9x    frame=248988 fps=3950 q=-1.0 size= 5016832kB time=01:09:09.95 bitrate=9903.2kbits/s speed=65.8x    frame=250914 fps=3949 q=-1.0 size= 5057024kB time=01:09:42.04 bitrate=9905.9kbits/s speed=65.8x    frame=252765 fps=3947 q=-1.0 size= 5095680kB time=01:10:12.91 bitrate=9908.5kbits/s speed=65.8x    frame=254539 fps=3944 q=-1.0 size= 5132288kB time=01:10:42.46 bitrate=9910.2kbits/s speed=65.7x    frame=256448 fps=3943 q=-1.0 size= 5171968kB time=01:11:14.28 bitrate=9912.5kbits/s speed=65.7x    frame=258314 fps=3941 q=-1.0 size= 5210880kB time=01:11:45.39 bitrate=9914.9kbits/s speed=65.7x    frame=260465 fps=3944 q=-1.0 size= 5251328kB time=01:12:21.23 bitrate=9909.4kbits/s speed=65.7x    frame=262701 fps=3948 q=-1.0 size= 5292032kB time=01:12:58.50 bitrate=9901.2kbits/s speed=65.8x    frame=264616 fps=3947 q=-1.0 size= 5331456kB time=01:13:30.41 bitrate=9902.8kbits/s speed=65.8x    frame=266600 fps=3947 q=-1.0 size= 5372928kB time=01:14:03.48 bitrate=9905.5kbits/s speed=65.8x    frame=268579 fps=3947 q=-1.0 size= 5413888kB time=01:14:36.46 bitrate=9907.5kbits/s speed=65.8x    frame=270366 fps=3945 q=-1.0 size= 5451264kB time=01:15:06.24 bitrate=9910.0kbits/s speed=65.7x    frame=272381 fps=3945 q=-1.0 size= 5492992kB time=01:15:39.83 bitrate=9912.0kbits/s speed=65.8x    frame=274433 fps=3946 q=-1.0 size= 5535744kB time=01:16:14.03 bitrate=9914.4kbits/s speed=65.8x    frame=276151 fps=3943 q=-1.0 size= 5571072kB time=01:16:42.66 bitrate=9915.6kbits/s speed=65.7x    frame=277988 fps=3941 q=-1.0 size= 5609728kB time=01:17:13.28 bitrate=9918.4kbits/s speed=65.7x    frame=279820 fps=3939 q=-1.0 size= 5647616kB time=01:17:43.81 bitrate=9920.1kbits/s speed=65.6x    frame=281710 fps=3937 q=-1.0 size= 5686784kB time=01:18:15.31 bitrate=9921.8kbits/s speed=65.6x    frame=283611 fps=3936 q=-1.0 size= 5726464kB time=01:18:46.99 bitrate=9924.1kbits/s speed=65.6x    frame=285597 fps=3937 q=-1.0 size= 5767424kB time=01:19:20.11 bitrate=9925.6kbits/s speed=65.6x    frame=287560 fps=3937 q=-1.0 size= 5808384kB time=01:19:52.81 bitrate=9927.8kbits/s speed=65.6x    frame=289551 fps=3937 q=-1.0 size= 5849600kB time=01:20:26.00 bitrate=9929.5kbits/s speed=65.6x    frame=291311 fps=3934 q=-1.0 size= 5886464kB time=01:20:55.33 bitrate=9931.7kbits/s speed=65.6x    frame=293308 fps=3934 q=-1.0 size= 5922560kB time=01:21:28.61 bitrate=9924.6kbits/s speed=65.6x    frame=294985 fps=3931 q=-1.0 size= 5956096kB time=01:21:56.56 bitrate=9924.1kbits/s speed=65.5x    frame=297118 fps=3933 q=-1.0 size= 5995008kB time=01:22:32.11 bitrate=9917.2kbits/s speed=65.5x    frame=298966 fps=3931 q=-1.0 size= 6033152kB time=01:23:02.91 bitrate=9918.6kbits/s speed=65.5x    frame=300817 fps=3930 q=-1.0 size= 6071552kB time=01:23:33.76 bitrate=9920.3kbits/s speed=65.5x    frame=302747 fps=3929 q=-1.0 size= 6111744kB time=01:24:05.93 bitrate=9922.3kbits/s speed=65.5x    frame=304687 fps=3929 q=-1.0 size= 6152192kB time=01:24:38.27 bitrate=9924.4kbits/s speed=65.5x    frame=306583 fps=3928 q=-1.0 size= 6191616kB time=01:25:09.86 bitrate=9926.2kbits/s speed=65.5x    frame=308564 fps=3928 q=-1.0 size= 6232576kB time=01:25:42.88 bitrate=9927.8kbits/s speed=65.5x    frame=310491 fps=3928 q=-1.0 size= 6272512kB time=01:26:15.00 bitrate=9929.4kbits/s speed=65.5x    frame=312238 fps=3925 q=-1.0 size= 6309120kB time=01:26:44.12 bitrate=9931.4kbits/s speed=65.4x    frame=314250 fps=3926 q=-1.0 size= 6350848kB time=01:27:17.64 bitrate=9933.1kbits/s speed=65.4x    frame=316260 fps=3926 q=-1.0 size= 6392832kB time=01:27:51.14 bitrate=9935.2kbits/s speed=65.4x    frame=318355 fps=3928 q=-1.0 size= 6436096kB time=01:28:26.06 bitrate=9936.7kbits/s speed=65.5x    frame=320482 fps=3930 q=-1.0 size= 6480384kB time=01:29:01.51 bitrate=9938.6kbits/s speed=65.5x    frame=322357 fps=3929 q=-1.0 size= 6519296kB time=01:29:32.76 bitrate=9940.2kbits/s speed=65.5x    frame=324293 fps=3928 q=-1.0 size= 6559744kB time=01:30:05.03 bitrate=9942.1kbits/s speed=65.5x    frame=326321 fps=3929 q=-1.0 size= 6601728kB time=01:30:38.83 bitrate=9943.6kbits/s speed=65.5x    frame=328124 fps=3927 q=-1.0 size= 6639104kB time=01:31:08.88 bitrate=9944.9kbits/s speed=65.5x    frame=330410 fps=3931 q=-1.0 size= 6681088kB time=01:31:46.98 bitrate=9938.6kbits/s speed=65.5x    frame=332849 fps=3936 q=-1.0 size= 6722816kB time=01:32:27.63 bitrate=9927.4kbits/s speed=65.6x    frame=334487 fps=3933 q=-1.0 size= 6757120kB time=01:32:54.93 bitrate=9929.1kbits/s speed=65.5x    frame=336458 fps=3933 q=-1.0 size= 6798080kB time=01:33:27.79 bitrate=9930.8kbits/s speed=65.5x    frame=338419 fps=3933 q=-1.0 size= 6838784kB time=01:34:00.47 bitrate=9932.4kbits/s speed=65.5x    frame=340335 fps=3932 q=-1.0 size= 6878464kB time=01:34:32.40 bitrate=9933.8kbits/s speed=65.5x    frame=342337 fps=3932 q=-1.0 size= 6920448kB time=01:35:05.77 bitrate=9936.0kbits/s speed=65.5x    frame=344276 fps=3932 q=-1.0 size= 6960640kB time=01:35:38.08 bitrate=9937.4kbits/s speed=65.5x    frame=346347 fps=3933 q=-1.0 size= 7003392kB time=01:36:12.59 bitrate=9938.6kbits/s speed=65.6x    frame=348453 fps=3935 q=-1.0 size= 7047168kB time=01:36:47.70 bitrate=9940.3kbits/s speed=65.6x    frame=350241 fps=3933 q=-1.0 size= 7084800kB time=01:37:17.49 bitrate=9942.4kbits/s speed=65.5x    frame=352338 fps=3934 q=-1.0 size= 7128064kB time=01:37:52.45 bitrate=9943.6kbits/s speed=65.6x    frame=354334 fps=3934 q=-1.0 size= 7169536kB time=01:38:25.71 bitrate=9945.1kbits/s speed=65.6x    frame=356237 fps=3934 q=-1.0 size= 7208960kB time=01:38:57.43 bitrate=9946.4kbits/s speed=65.6x    frame=358255 fps=3934 q=-1.0 size= 7250944kB time=01:39:31.07 bitrate=9947.9kbits/s speed=65.6x    frame=360214 fps=3934 q=-1.0 size= 7291648kB time=01:40:03.71 bitrate=9949.4kbits/s speed=65.6x    frame=362258 fps=3935 q=-1.0 size= 7333888kB time=01:40:37.78 bitrate=9950.5kbits/s speed=65.6x    frame=364361 fps=3937 q=-1.0 size= 7377664kB time=01:41:12.83 bitrate=9952.2kbits/s speed=65.6x    frame=366157 fps=3935 q=-1.0 size= 7414784kB time=01:41:42.76 bitrate=9953.2kbits/s speed=65.6x    frame=368509 fps=3939 q=-1.0 size= 7458304kB time=01:42:21.96 bitrate=9947.7kbits/s speed=65.6x    frame=370629 fps=3940 q=-1.0 size= 7501568kB time=01:42:57.30 bitrate=9948.2kbits/s speed=65.7x    frame=373016 fps=3945 q=-1.0 size= 7542528kB time=01:43:37.09 bitrate=9938.5kbits/s speed=65.7x    frame=374938 fps=3944 q=-1.0 size= 7582464kB time=01:44:09.11 bitrate=9939.9kbits/s speed=65.7x    frame=376692 fps=3942 q=-1.0 size= 7619072kB time=01:44:38.36 bitrate=9941.4kbits/s speed=65.7x    frame=378693 fps=3942 q=-1.0 size= 7660800kB time=01:45:11.69 bitrate=9943.0kbits/s speed=65.7x    frame=380974 fps=3945 q=-1.0 size= 7703296kB time=01:45:49.71 bitrate=9938.3kbits/s speed=65.8x    frame=383194 fps=3948 q=-1.0 size= 7741184kB time=01:46:26.71 bitrate=9929.3kbits/s speed=65.8x    frame=385143 fps=3948 q=-1.0 size= 7781632kB time=01:46:59.19 bitrate=9930.7kbits/s speed=65.8x    frame=387134 fps=3948 q=-1.0 size= 7823104kB time=01:47:32.38 bitrate=9932.3kbits/s speed=65.8x    frame=388903 fps=3946 q=-1.0 size= 7859712kB time=01:48:01.86 bitrate=9933.4kbits/s speed=65.8x    frame=390908 fps=3946 q=-1.0 size= 7901440kB time=01:48:35.28 bitrate=9934.9kbits/s speed=65.8x    frame=392882 fps=3946 q=-1.0 size= 7942400kB time=01:49:08.18 bitrate=9936.2kbits/s speed=65.8x    frame=394589 fps=3943 q=-1.0 size= 7977728kB time=01:49:36.64 bitrate=9937.2kbits/s speed=65.7x    frame=396619 fps=3944 q=-1.0 size= 8019968kB time=01:50:10.47 bitrate=9938.7kbits/s speed=65.7x    frame=398438 fps=3942 q=-1.0 size= 8057856kB time=01:50:40.79 bitrate=9940.1kbits/s speed=65.7x    frame=400247 fps=3941 q=-1.0 size= 8095488kB time=01:51:10.93 bitrate=9941.4kbits/s speed=65.7x    frame=402226 fps=3941 q=-1.0 size= 8136704kB time=01:51:43.91 bitrate=9942.8kbits/s speed=65.7x    frame=404074 fps=3940 q=-1.0 size= 8175104kB time=01:52:14.71 bitrate=9944.1kbits/s speed=65.7x    frame=405929 fps=3939 q=-1.0 size= 8213504kB time=01:52:45.63 bitrate=9945.1kbits/s speed=65.6x    frame=407681 fps=3936 q=-1.0 size= 8249856kB time=01:53:14.84 bitrate=9946.2kbits/s speed=65.6x    frame=409384 fps=3934 q=-1.0 size= 8285440kB time=01:53:43.21 bitrate=9947.6kbits/s speed=65.6x    frame=411167 fps=3932 q=-1.0 size= 8322560kB time=01:54:12.93 bitrate=9948.8kbits/s speed=65.5x    frame=413247 fps=3933 q=-1.0 size= 8361216kB time=01:54:47.59 bitrate=9944.7kbits/s speed=65.6x    frame=415068 fps=3932 q=-1.0 size= 8399616kB time=01:55:17.94 bitrate=9946.5kbits/s speed=65.5x    frame=417266 fps=3934 q=-1.0 size= 8436480kB time=01:55:54.58 bitrate=9937.6kbits/s speed=65.6x    frame=419033 fps=3932 q=-1.0 size= 8473088kB time=01:56:24.03 bitrate=9938.6kbits/s speed=65.5x    frame=420888 fps=3931 q=-1.0 size= 8511744kB time=01:56:54.94 bitrate=9939.9kbits/s speed=65.5x    frame=422899 fps=3931 q=-1.0 size= 8553472kB time=01:57:28.46 bitrate=9941.2kbits/s speed=65.5x    frame=424675 fps=3930 q=-1.0 size= 8590336kB time=01:57:58.06 bitrate=9942.3kbits/s speed=65.5x    frame=426644 fps=3930 q=-1.0 size= 8631296kB time=01:58:30.89 bitrate=9943.6kbits/s speed=65.5x    frame=428618 fps=3930 q=-1.0 size= 8672512kB time=01:59:03.78 bitrate=9945.0kbits/s speed=65.5x    frame=430496 fps=3929 q=-1.0 size= 8711424kB time=01:59:35.08 bitrate=9946.1kbits/s speed=65.5x    frame=432418 fps=3929 q=-1.0 size= 8751360kB time=02:00:07.11 bitrate=9947.3kbits/s speed=65.5x    frame=434405 fps=3929 q=-1.0 size= 8792576kB time=02:00:40.23 bitrate=9948.4kbits/s speed=65.5x    frame=436369 fps=3929 q=-1.0 size= 8833280kB time=02:01:12.96 bitrate=9949.5kbits/s speed=65.5x    frame=438391 fps=3929 q=-1.0 size= 8875520kB time=02:01:46.67 bitrate=9950.9kbits/s speed=65.5x    frame=440218 fps=3928 q=-1.0 size= 8913152kB time=02:02:17.11 bitrate=9951.7kbits/s speed=65.5x    frame=442192 fps=3928 q=-1.0 size= 8954368kB time=02:02:50.01 bitrate=9953.1kbits/s speed=65.5x    frame=444192 fps=3928 q=-1.0 size= 8996096kB time=02:03:23.35 bitrate=9954.4kbits/s speed=65.5x    frame=446004 fps=3927 q=-1.0 size= 9033472kB time=02:03:53.56 bitrate=9955.1kbits/s speed=65.5x    frame=447976 fps=3927 q=-1.0 size= 9074432kB time=02:04:26.41 bitrate=9956.3kbits/s speed=65.5x    frame=450266 fps=3930 q=-1.0 size= 9116416kB time=02:05:04.58 bitrate=9951.5kbits/s speed=65.5x    frame=452379 fps=3931 q=-1.0 size= 9154560kB time=02:05:39.80 bitrate=9946.4kbits/s speed=65.5x    frame=454641 fps=3934 q=-1.0 size= 9196800kB time=02:06:17.49 bitrate=9942.6kbits/s speed=65.6x    frame=456509 fps=3933 q=-1.0 size= 9235968kB time=02:06:48.63 bitrate=9944.1kbits/s speed=65.5x    frame=458354 fps=3932 q=-1.0 size= 9274112kB time=02:07:19.38 bitrate=9945.0kbits/s speed=65.5x    frame=460349 fps=3932 q=-1.0 size= 9315584kB time=02:07:52.64 bitrate=9946.1kbits/s speed=65.5x    frame=462217 fps=3931 q=-1.0 size= 9354496kB time=02:08:23.76 bitrate=9947.4kbits/s speed=65.5x    frame=464237 fps=3932 q=-1.0 size= 9396224kB time=02:08:57.43 bitrate=9948.2kbits/s speed=65.5x    frame=466232 fps=3932 q=-1.0 size= 9437952kB time=02:09:30.68 bitrate=9949.7kbits/s speed=65.5x    frame=467987 fps=3930 q=-1.0 size= 9474304kB time=02:09:59.93 bitrate=9950.5kbits/s speed=65.5x    frame=469938 fps=3930 q=-1.0 size= 9514752kB time=02:10:32.45 bitrate=9951.5kbits/s speed=65.5x    frame=471926 fps=3930 q=-1.0 size= 9555968kB time=02:11:05.58 bitrate=9952.5kbits/s speed=65.5x    frame=473873 fps=3930 q=-1.0 size= 9596672kB time=02:11:38.03 bitrate=9953.9kbits/s speed=65.5x    frame=475633 fps=3928 q=-1.0 size= 9633280kB time=02:12:07.36 bitrate=9954.9kbits/s speed=65.5x    frame=477623 fps=3929 q=-1.0 size= 9674496kB time=02:12:40.53 bitrate=9955.8kbits/s speed=65.5x    frame=479530 fps=3928 q=-1.0 size= 9714176kB time=02:13:12.31 bitrate=9956.9kbits/s speed=65.5x    frame=481718 fps=3930 q=-1.0 size= 9755136kB time=02:13:48.78 bitrate=9953.5kbits/s speed=65.5x    frame=483917 fps=3932 q=-1.0 size= 9800192kB time=02:14:25.43 bitrate=9954.0kbits/s speed=65.5x    frame=485893 fps=3932 q=-1.0 size= 9833984kB time=02:14:58.37 bitrate=9947.7kbits/s speed=65.5x    frame=487704 fps=3931 q=-1.0 size= 9871872kB time=02:15:28.55 bitrate=9948.9kbits/s speed=65.5x    frame=489675 fps=3931 q=-1.0 size= 9912576kB time=02:16:01.41 bitrate=9949.7kbits/s speed=65.5x    frame=491700 fps=3931 q=-1.0 size= 9954560kB time=02:16:35.16 bitrate=9950.7kbits/s speed=65.5x    frame=493789 fps=3932 q=-1.0 size= 9998080kB time=02:17:09.96 bitrate=9952.0kbits/s speed=65.5x    frame=495802 fps=3932 q=-1.0 size=10039808kB time=02:17:43.51 bitrate=9952.9kbits/s speed=65.5x    frame=497699 fps=3932 q=-1.0 size=10078976kB time=02:18:15.13 bitrate=9953.7kbits/s speed=65.5x    frame=499750 fps=3933 q=-1.0 size=10122240kB time=02:18:49.31 bitrate=9955.4kbits/s speed=65.5x    frame=501715 fps=3932 q=-1.0 size=10162944kB time=02:19:22.06 bitrate=9956.3kbits/s speed=65.5x    frame=503677 fps=3932 q=-1.0 size=10203648kB time=02:19:54.77 bitrate=9957.2kbits/s speed=65.5x    frame=505780 fps=3933 q=-1.0 size=10247168kB time=02:20:29.81 bitrate=9958.1kbits/s speed=65.6x    frame=507570 fps=3932 q=-1.0 size=10284544kB time=02:20:59.64 bitrate=9959.2kbits/s speed=65.5x    frame=509626 fps=3933 q=-1.0 size=10327040kB time=02:21:33.91 bitrate=9960.0kbits/s speed=65.5x    frame=511671 fps=3933 q=-1.0 size=10369536kB time=02:22:07.99 bitrate=9961.0kbits/s speed=65.6x    frame=513962 fps=3936 q=-1.0 size=10410752kB time=02:22:46.18 bitrate=9956.0kbits/s speed=65.6x    frame=516214 fps=3938 q=-1.0 size=10455552kB time=02:23:23.71 bitrate=9955.2kbits/s speed=65.6x    frame=518641 fps=3941 q=-1.0 size=10497536kB time=02:24:04.16 bitrate=9948.4kbits/s speed=65.7x    frame=520683 fps=3942 q=-1.0 size=10539776kB time=02:24:38.21 bitrate=9949.3kbits/s speed=65.7x    frame=522751 fps=3943 q=-1.0 size=10582784kB time=02:25:12.66 bitrate=9950.4kbits/s speed=65.7x    frame=524695 fps=3943 q=-1.0 size=10623232kB time=02:25:45.06 bitrate=9951.4kbits/s speed=65.7x    frame=526691 fps=3943 q=-1.0 size=10664704kB time=02:26:18.33 bitrate=9952.4kbits/s speed=65.7x    frame=528731 fps=3943 q=-1.0 size=10707200kB time=02:26:52.33 bitrate=9953.5kbits/s speed=65.7x    frame=530559 fps=3942 q=-1.0 size=10745088kB time=02:27:22.79 bitrate=9954.3kbits/s speed=65.7x    frame=532594 fps=3943 q=-1.0 size=10787328kB time=02:27:56.71 bitrate=9955.2kbits/s speed=65.7x    frame=534638 fps=3943 q=-1.0 size=10829824kB time=02:28:30.78 bitrate=9956.2kbits/s speed=65.7x    frame=536449 fps=3942 q=-1.0 size=10867456kB time=02:29:00.97 bitrate=9957.1kbits/s speed=65.7x    frame=538486 fps=3942 q=-1.0 size=10909696kB time=02:29:34.91 bitrate=9958.0kbits/s speed=65.7x    frame=540424 fps=3942 q=-1.0 size=10950144kB time=02:30:07.21 bitrate=9959.1kbits/s speed=65.7x    frame=542345 fps=3942 q=-1.0 size=10989824kB time=02:30:39.23 bitrate=9959.8kbits/s speed=65.7x    frame=544453 fps=3943 q=-1.0 size=11033600kB time=02:31:14.37 bitrate=9960.7kbits/s speed=65.7x    frame=546616 fps=3944 q=-1.0 size=11074048kB time=02:31:50.41 bitrate=9957.7kbits/s speed=65.7x    frame=549251 fps=3949 q=-1.0 size=11119104kB time=02:32:34.33 bitrate=9950.2kbits/s speed=65.8x    frame=551356 fps=3950 q=-1.0 size=11162880kB time=02:33:09.41 bitrate=9951.3kbits/s speed=65.8x    frame=553295 fps=3950 q=-1.0 size=11203072kB time=02:33:41.73 bitrate=9952.1kbits/s speed=65.8x    frame=555339 fps=3950 q=-1.0 size=11245568kB time=02:34:15.81 bitrate=9953.1kbits/s speed=65.8x    frame=557366 fps=3950 q=-1.0 size=11287552kB time=02:34:49.58 bitrate=9953.9kbits/s speed=65.8x    frame=559416 fps=3951 q=-1.0 size=11330560kB time=02:35:23.74 bitrate=9955.2kbits/s speed=65.9x    frame=561897 fps=3955 q=-1.0 size=11375616kB time=02:36:05.09 bitrate=9950.7kbits/s speed=65.9x    frame=564438 fps=3958 q=-1.0 size=11419136kB time=02:36:47.44 bitrate=9943.8kbits/s speed=  66x    frame=566502 fps=3959 q=-1.0 size=11461888kB time=02:37:21.86 bitrate=9944.6kbits/s speed=  66x    frame=568599 fps=3960 q=-1.0 size=11505664kB time=02:37:56.79 bitrate=9945.8kbits/s speed=  66x    frame=570644 fps=3960 q=-1.0 size=11548160kB time=02:38:30.88 bitrate=9946.8kbits/s speed=  66x    frame=572776 fps=3961 q=-1.0 size=11592192kB time=02:39:06.41 bitrate=9947.5kbits/s speed=  66x    frame=574859 fps=3962 q=-1.0 size=11635456kB time=02:39:41.13 bitrate=9948.5kbits/s speed=  66x    frame=576864 fps=3962 q=-1.0 size=11677184kB time=02:40:14.54 bitrate=9949.5kbits/s speed=  66x    frame=578899 fps=3963 q=-1.0 size=11719424kB time=02:40:48.46 bitrate=9950.3kbits/s speed=  66x    frame=580843 fps=3962 q=-1.0 size=11759616kB time=02:41:20.86 bitrate=9951.1kbits/s speed=  66x    frame=582781 fps=3962 q=-1.0 size=11800064kB time=02:41:53.16 bitrate=9952.1kbits/s speed=  66x    frame=584719 fps=3962 q=-1.0 size=11840256kB time=02:42:25.47 bitrate=9952.9kbits/s speed=  66x    frame=586541 fps=3961 q=-1.0 size=11878144kB time=02:42:55.83 bitrate=9953.7kbits/s speed=  66x    frame=588587 fps=3961 q=-1.0 size=11920896kB time=02:43:29.94 bitrate=9954.8kbits/s speed=  66x    frame=590529 fps=3961 q=-1.0 size=11961088kB time=02:44:02.29 bitrate=9955.5kbits/s speed=  66x    frame=592340 fps=3960 q=-1.0 size=11998720kB time=02:44:32.48 bitrate=9956.3kbits/s speed=  66x    frame=594350 fps=3960 q=-1.0 size=12035584kB time=02:45:05.98 bitrate=9953.1kbits/s speed=  66x    frame=596732 fps=3963 q=-1.0 size=12075264kB time=02:45:45.68 bitrate=9946.1kbits/s speed=  66x    frame=598534 fps=3961 q=-1.0 size=12112896kB time=02:46:15.72 bitrate=9947.0kbits/s speed=  66x    frame=600587 fps=3962 q=-1.0 size=12155392kB time=02:46:49.94 bitrate=9947.8kbits/s speed=  66x    frame=602444 fps=3961 q=-1.0 size=12194048kB time=02:47:20.88 bitrate=9948.7kbits/s speed=  66x    frame=604497 fps=3961 q=-1.0 size=12236800kB time=02:47:55.09 bitrate=9949.7kbits/s speed=  66x    frame=606527 fps=3962 q=-1.0 size=12278784kB time=02:48:28.93 bitrate=9950.4kbits/s speed=  66x    frame=608369 fps=3961 q=-1.0 size=12317184kB time=02:48:59.63 bitrate=9951.3kbits/s speed=  66x    frame=610391 fps=3961 q=-1.0 size=12359168kB time=02:49:33.33 bitrate=9952.1kbits/s speed=  66x    frame=612446 fps=3962 q=-1.0 size=12401920kB time=02:50:07.58 bitrate=9953.0kbits/s speed=  66x    frame=614211 fps=3960 q=-1.0 size=12438528kB time=02:50:36.99 bitrate=9953.7kbits/s speed=  66x    frame=616237 fps=3960 q=-1.0 size=12480768kB time=02:51:10.76 bitrate=9954.7kbits/s speed=  66x    frame=618180 fps=3960 q=-1.0 size=12521216kB time=02:51:43.15 bitrate=9955.6kbits/s speed=  66x    frame=620243 fps=3961 q=-1.0 size=12563968kB time=02:52:17.53 bitrate=9956.3kbits/s speed=  66x    frame=622228 fps=3961 q=-1.0 size=12605184kB time=02:52:50.61 bitrate=9957.1kbits/s speed=  66x    frame=624099 fps=3960 q=-1.0 size=12643840kB time=02:53:21.79 bitrate=9957.7kbits/s speed=  66x    frame=626036 fps=3960 q=-1.0 size=12684288kB time=02:53:54.08 bitrate=9958.7kbits/s speed=  66x    frame=628281 fps=3961 q=-1.0 size=12726784kB time=02:54:31.49 bitrate=9956.3kbits/s speed=  66x    frame=630131 fps=3961 q=-1.0 size=12765184kB time=02:55:02.33 bitrate=9957.1kbits/s speed=  66x    frame=632457 fps=3963 q=-1.0 size=12807680kB time=02:55:41.09 bitrate=9953.5kbits/s speed=  66x    frame=634467 fps=3963 q=-1.0 size=12849408kB time=02:56:14.59 bitrate=9954.3kbits/s speed=  66x    frame=636194 fps=3961 q=-1.0 size=12885248kB time=02:56:43.38 bitrate=9954.9kbits/s speed=  66x    frame=638208 fps=3962 q=-1.0 size=12927232kB time=02:57:16.95 bitrate=9955.8kbits/s speed=  66x    frame=640142 fps=3961 q=-1.0 size=12967168kB time=02:57:49.18 bitrate=9956.4kbits/s speed=  66x    frame=641995 fps=3960 q=-1.0 size=13005568kB time=02:58:20.06 bitrate=9957.1kbits/s speed=  66x    frame=644023 fps=3961 q=-1.0 size=13047808kB time=02:58:53.87 bitrate=9958.0kbits/s speed=  66x    frame=645867 fps=3960 q=-1.0 size=13086208kB time=02:59:24.59 bitrate=9958.8kbits/s speed=  66x    frame=647705 fps=3959 q=-1.0 size=13124608kB time=02:59:55.23 bitrate=9959.7kbits/s speed=  66x    frame=649317 fps=3957 q=-1.0 size=13157888kB time=03:00:22.10 bitrate=9960.1kbits/s speed=65.9x    frame=651219 fps=3956 q=-1.0 size=13197312kB time=03:00:53.80 bitrate=9960.8kbits/s speed=65.9x    frame=653239 fps=3957 q=-1.0 size=13239552kB time=03:01:27.46 bitrate=9961.8kbits/s speed=65.9x    frame=654944 fps=3955 q=-1.0 size=13275136kB time=03:01:55.88 bitrate=9962.5kbits/s speed=65.9x    frame=656879 fps=3955 q=-1.0 size=13315072kB time=03:02:28.13 bitrate=9963.1kbits/s speed=65.9x    frame=658857 fps=3955 q=-1.0 size=13356032kB time=03:03:01.09 bitrate=9963.7kbits/s speed=65.9x    frame=660805 fps=3954 q=-1.0 size=13396480kB time=03:03:33.57 bitrate=9964.4kbits/s speed=65.9x    frame=662845 fps=3955 q=-1.0 size=13439232kB time=03:04:07.56 bitrate=9965.5kbits/s speed=65.9x    frame=664731 fps=3954 q=-1.0 size=13477632kB time=03:04:39.00 bitrate=9965.6kbits/s speed=65.9x    frame=667095 fps=3957 q=-1.0 size=13520384kB time=03:05:18.40 bitrate=9961.8kbits/s speed=65.9x    frame=669311 fps=3958 q=-1.0 size=13563648kB time=03:05:55.33 bitrate=9960.6kbits/s speed=  66x    frame=671282 fps=3958 q=-1.0 size=13601024kB time=03:06:28.18 bitrate=9958.7kbits/s speed=  66x    frame=673265 fps=3958 q=-1.0 size=13642240kB time=03:07:01.23 bitrate=9959.4kbits/s speed=  66x    frame=675200 fps=3958 q=-1.0 size=13682432kB time=03:07:33.48 bitrate=9960.2kbits/s speed=  66x    frame=676977 fps=3956 q=-1.0 size=13719296kB time=03:08:03.09 bitrate=9960.8kbits/s speed=65.9x    frame=678910 fps=3956 q=-1.0 size=13759488kB time=03:08:35.31 bitrate=9961.5kbits/s speed=65.9x    frame=680719 fps=3955 q=-1.0 size=13796864kB time=03:09:05.47 bitrate=9962.0kbits/s speed=65.9x    frame=682237 fps=3952 q=-1.0 size=13828864kB time=03:09:30.77 bitrate=9962.9kbits/s speed=65.9x    frame=683942 fps=3951 q=-1.0 size=13864192kB time=03:09:59.18 bitrate=9963.5kbits/s speed=65.8x    frame=685966 fps=3951 q=-1.0 size=13906176kB time=03:10:32.91 bitrate=9964.2kbits/s speed=65.9x    frame=688427 fps=3954 q=-1.0 size=13948672kB time=03:11:13.93 bitrate=9958.9kbits/s speed=65.9x    frame=692013 fps=3963 q=-1.0 size=13989888kB time=03:12:13.70 bitrate=9936.5kbits/s speed=66.1x    frame=695760 fps=3973 q=-1.0 size=14029824kB time=03:13:16.14 bitrate=9911.3kbits/s speed=66.2x    frame=699094 fps=3981 q=-1.0 size=14070528kB time=03:14:11.71 bitrate=9892.6kbits/s speed=66.3x    frame=702077 fps=3987 q=-1.0 size=14112000kB time=03:15:01.44 bitrate=9879.6kbits/s speed=66.4x    frame=704279 fps=3988 q=-1.0 size=14156032kB time=03:15:38.13 bitrate=9879.4kbits/s speed=66.5x    frame=706506 fps=3989 q=-1.0 size=14198016kB time=03:16:15.24 bitrate=9877.5kbits/s speed=66.5x    frame=709425 fps=3994 q=-1.0 size=14241280kB time=03:17:03.89 bitrate=9866.8kbits/s speed=66.6x    frame=712132 fps=3998 q=-1.0 size=14285312kB time=03:17:49.01 bitrate=9859.7kbits/s speed=66.6x    frame=714337 fps=3999 q=-1.0 size=14324992kB time=03:18:25.76 bitrate=9856.6kbits/s speed=66.7x    frame=717604 fps=4006 q=-1.0 size=14367232kB time=03:19:20.21 bitrate=9840.7kbits/s speed=66.8x    frame=720238 fps=4010 q=-1.0 size=14410240kB time=03:20:04.11 bitrate=9834.0kbits/s speed=66.8x    frame=723079 fps=4015 q=-1.0 size=14451712kB time=03:20:51.46 bitrate=9823.6kbits/s speed=66.9x    frame=725688 fps=4018 q=-1.0 size=14493184kB time=03:21:34.94 bitrate=9816.3kbits/s speed=  67x    frame=727968 fps=4019 q=-1.0 size=14533632kB time=03:22:12.94 bitrate=9812.9kbits/s speed=  67x    frame=730603 fps=4023 q=-1.0 size=14576128kB time=03:22:56.87 bitrate=9806.1kbits/s speed=  67x    frame=732932 fps=4025 q=-1.0 size=14618368kB time=03:23:35.68 bitrate=9803.3kbits/s speed=67.1x    frame=736198 fps=4031 q=-1.0 size=14657792kB time=03:24:30.12 bitrate=9786.1kbits/s speed=67.2x    frame=738395 fps=4032 q=-1.0 size=14700800kB time=03:25:06.73 bitrate=9785.6kbits/s speed=67.2x    frame=740847 fps=4035 q=-1.0 size=14742016kB time=03:25:47.60 bitrate=9780.6kbits/s speed=67.2x    frame=743968 fps=4041 q=-1.0 size=14782464kB time=03:26:39.61 bitrate=9766.3kbits/s speed=67.3x    frame=746292 fps=4042 q=-1.0 size=14826240kB time=03:27:18.34 bitrate=9764.7kbits/s speed=67.4x    frame=748468 fps=4043 q=-1.0 size=14864384kB time=03:27:54.62 bitrate=9761.3kbits/s speed=67.4x    frame=750925 fps=4046 q=-1.0 size=14907392kB time=03:28:35.56 bitrate=9757.6kbits/s speed=67.4x    frame=753378 fps=4048 q=-1.0 size=14950912kB time=03:29:16.44 bitrate=9754.2kbits/s speed=67.5x    frame=755205 fps=4047 q=-1.0 size=14988032kB time=03:29:46.90 bitrate=9754.7kbits/s speed=67.4x    frame=758034 fps=4051 q=-1.0 size=15030272kB time=03:30:34.04 bitrate=9745.7kbits/s speed=67.5x    frame=760657 fps=4054 q=-1.0 size=15071744kB time=03:31:17.76 bitrate=9738.9kbits/s speed=67.6x    frame=763066 fps=4056 q=-1.0 size=15114240kB time=03:31:57.91 bitrate=9735.5kbits/s speed=67.6x    frame=765526 fps=4059 q=-1.0 size=15158272kB time=03:32:38.91 bitrate=9732.5kbits/s speed=67.6x    frame=768223 fps=4062 q=-1.0 size=15200000kB time=03:33:23.86 bitrate=9725.1kbits/s speed=67.7x    frame=771297 fps=4068 q=-1.0 size=15247104kB time=03:34:15.10 bitrate=9716.3kbits/s speed=67.8x    frame=774087 fps=4072 q=-1.0 size=15290368kB time=03:35:01.59 bitrate=9708.8kbits/s speed=67.9x    frame=776434 fps=4073 q=-1.0 size=15328768kB time=03:35:40.71 bitrate=9703.7kbits/s speed=67.9x    frame=779102 fps=4076 q=-1.0 size=15372032kB time=03:36:25.18 bitrate=9697.8kbits/s speed=67.9x    frame=781627 fps=4079 q=-1.0 size=15414528kB time=03:37:07.26 bitrate=9693.2kbits/s speed=  68x    frame=784119 fps=4081 q=-1.0 size=15457280kB time=03:37:48.80 bitrate=9689.2kbits/s speed=  68x    frame=786836 fps=4085 q=-1.0 size=15501568kB time=03:38:34.09 bitrate=9683.4kbits/s speed=68.1x    frame=790879 fps=4095 q=-1.0 size=15542528kB time=03:39:41.46 bitrate=9659.4kbits/s speed=68.3x    frame=797153 fps=4117 q=-1.0 size=15583232kB time=03:41:26.04 bitrate=9608.4kbits/s speed=68.6x    frame=803070 fps=4137 q=-1.0 size=15622400kB time=03:43:04.64 bitrate=9561.6kbits/s speed=68.9x    frame=806314 fps=4143 q=-1.0 size=15661312kB time=03:43:58.72 bitrate=9546.8kbits/s speed=  69x    frame=809195 fps=4147 q=-1.0 size=15704064kB time=03:44:46.73 bitrate=9538.8kbits/s speed=69.1x    frame=812900 fps=4155 q=-1.0 size=15748352kB time=03:45:48.48 bitrate=9522.1kbits/s speed=69.3x    frame=818167 fps=4172 q=-1.0 size=15788288kB time=03:47:16.26 bitrate=9484.8kbits/s speed=69.5x    frame=821317 fps=4177 q=-1.0 size=15831040kB time=03:48:08.76 bitrate=9474.0kbits/s speed=69.6x    frame=824669 fps=4183 q=-1.0 size=15872256kB time=03:49:04.64 bitrate=9460.1kbits/s speed=69.7x    frame=827740 fps=4188 q=-1.0 size=15916032kB time=03:49:55.81 bitrate=9451.0kbits/s speed=69.8x    frame=830930 fps=4194 q=-1.0 size=15957248kB time=03:50:48.98 bitrate=9439.1kbits/s speed=69.9x    frame=834223 fps=4200 q=-1.0 size=15998464kB time=03:51:43.87 bitrate=9426.1kbits/s speed=  70x    frame=836503 fps=4201 q=-1.0 size=16039168kB time=03:52:21.86 bitrate=9424.3kbits/s speed=  70x    frame=839095 fps=4203 q=-1.0 size=16082176kB time=03:53:05.06 bitrate=9420.4kbits/s speed=70.1x    frame=841212 fps=4203 q=-1.0 size=16119296kB time=03:53:40.34 bitrate=9418.4kbits/s speed=70.1x    frame=844230 fps=4208 q=-1.0 size=16160256kB time=03:54:30.66 bitrate=9408.6kbits/s speed=70.1x    frame=846593 fps=4209 q=-1.0 size=16204288kB time=03:55:10.04 bitrate=9407.9kbits/s speed=70.2x    frame=849560 fps=4213 q=-1.0 size=16244736kB time=03:55:59.49 bitrate=9398.4kbits/s speed=70.2x    frame=852212 fps=4216 q=-1.0 size=16286976kB time=03:56:43.69 bitrate=9393.5kbits/s speed=70.3x    frame=854613 fps=4218 q=-1.0 size=16328448kB time=03:57:23.69 bitrate=9391.0kbits/s speed=70.3x    frame=857064 fps=4219 q=-1.0 size=16371200kB time=03:58:04.54 bitrate=9388.7kbits/s speed=70.3x    frame=859287 fps=4220 q=-1.0 size=16415232kB time=03:58:41.60 bitrate=9389.6kbits/s speed=70.3x    frame=862042 fps=4223 q=-1.0 size=16456448kB time=03:59:27.51 bitrate=9383.1kbits/s speed=70.4x    frame=864437 fps=4224 q=-1.0 size=16499968kB time=04:00:07.43 bitrate=9381.8kbits/s speed=70.4x    frame=866554 fps=4224 q=-1.0 size=16542208kB time=04:00:42.71 bitrate=9382.8kbits/s speed=70.4x    frame=868689 fps=4225 q=-1.0 size=16584448kB time=04:01:18.29 bitrate=9383.7kbits/s speed=70.4x    frame=870871 fps=4225 q=-1.0 size=16627968kB time=04:01:54.66 bitrate=9384.7kbits/s speed=70.4x    frame=873070 fps=4225 q=-1.0 size=16669440kB time=04:02:31.31 bitrate=9384.4kbits/s speed=70.4x    frame=875145 fps=4225 q=-1.0 size=16708608kB time=04:03:05.90 bitrate=9384.2kbits/s speed=70.4x    frame=877329 fps=4225 q=-1.0 size=16752128kB time=04:03:42.29 bitrate=9385.2kbits/s speed=70.4x    frame=879440 fps=4225 q=-1.0 size=16794368kB time=04:04:17.48 bitrate=9386.3kbits/s speed=70.4x    frame=882150 fps=4228 q=-1.0 size=16838144kB time=04:05:02.64 bitrate=9381.9kbits/s speed=70.5x    frame=885962 fps=4236 q=-1.0 size=16880640kB time=04:06:06.19 bitrate=9365.1kbits/s speed=70.6x    frame=888452 fps=4238 q=-1.0 size=16924160kB time=04:06:47.68 bitrate=9362.9kbits/s speed=70.6x    frame=891515 fps=4243 q=-1.0 size=16964608kB time=04:07:38.73 bitrate=9353.0kbits/s speed=70.7x    frame=898024 fps=4263 q=-1.0 size=17001472kB time=04:09:27.21 bitrate=9305.4kbits/s speed=71.1x    frame=902148 fps=4273 q=-1.0 size=17036800kB time=04:10:35.94 bitrate=9282.1kbits/s speed=71.2x    frame=906232 fps=4282 q=-1.0 size=17077248kB time=04:11:44.02 bitrate=9262.2kbits/s speed=71.4x    frame=908195 fps=4281 q=-1.0 size=17116928kB time=04:12:16.73 bitrate=9263.7kbits/s speed=71.4x    frame=911288 fps=4286 q=-1.0 size=17155584kB time=04:13:08.28 bitrate=9253.1kbits/s speed=71.4x    frame=914059 fps=4289 q=-1.0 size=17196032kB time=04:13:54.47 bitrate=9246.8kbits/s speed=71.5x    frame=916137 fps=4288 q=-1.0 size=17234688kB time=04:14:29.09 bitrate=9246.6kbits/s speed=71.5x    frame=918467 fps=4289 q=-1.0 size=17274112kB time=04:15:07.93 bitrate=9244.2kbits/s speed=71.5x    frame=921170 fps=4292 q=-1.0 size=17317376kB time=04:15:52.98 bitrate=9240.2kbits/s speed=71.5x    frame=923410 fps=4292 q=-1.0 size=17353216kB time=04:16:30.31 bitrate=9236.8kbits/s speed=71.5x    frame=925869 fps=4294 q=-1.0 size=17393920kB time=04:17:11.30 bitrate=9233.9kbits/s speed=71.6x    frame=930254 fps=4304 q=-1.0 size=17430272kB time=04:18:24.38 bitrate=9209.6kbits/s speed=71.7x    frame=932203 fps=4303 q=-1.0 size=17469440kB time=04:18:56.87 bitrate=9211.0kbits/s speed=71.7x    frame=934011 fps=4301 q=-1.0 size=17507328kB time=04:19:27.00 bitrate=9213.1kbits/s speed=71.7x    frame=935895 fps=4300 q=-1.0 size=17546240kB time=04:19:58.39 bitrate=9215.0kbits/s speed=71.7x    frame=937788 fps=4299 q=-1.0 size=17585408kB time=04:20:29.95 bitrate=9216.9kbits/s speed=71.7x    frame=941355 fps=4305 q=-1.0 size=17623296kB time=04:21:29.39 bitrate=9201.8kbits/s speed=71.8x    frame=943688 fps=4306 q=-1.0 size=17659904kB time=04:22:08.28 bitrate=9198.1kbits/s speed=71.8x    frame=946333 fps=4309 q=-1.0 size=17689856kB time=04:22:52.36 bitrate=9187.9kbits/s speed=71.8x    frame=948461 fps=4308 q=-1.0 size=17727744kB time=04:23:27.83 bitrate=9186.9kbits/s speed=71.8x    frame=950645 fps=4309 q=-1.0 size=17768192kB time=04:24:04.23 bitrate=9186.8kbits/s speed=71.8x    frame=953595 fps=4312 q=-1.0 size=17811456kB time=04:24:53.39 bitrate=9180.6kbits/s speed=71.9x    frame=957437 fps=4320 q=-1.0 size=17850624kB time=04:25:57.44 bitrate=9163.9kbits/s speed=  72x    frame=960114 fps=4322 q=-1.0 size=17891584kB time=04:26:42.05 bitrate=9159.3kbits/s speed=  72x    frame=963367 fps=4327 q=-1.0 size=17936384kB time=04:27:36.26 bitrate=9151.2kbits/s speed=72.1x    frame=965435 fps=4327 q=-1.0 size=17974784kB time=04:28:10.73 bitrate=9151.2kbits/s speed=72.1x    frame=967873 fps=4328 q=-1.0 size=18012928kB time=04:28:51.37 bitrate=9147.5kbits/s speed=72.1x    frame=970153 fps=4328 q=-1.0 size=18051584kB time=04:29:29.36 bitrate=9145.6kbits/s speed=72.1x    frame=972260 fps=4328 q=-1.0 size=18086912kB time=04:30:04.48 bitrate=9143.6kbits/s speed=72.1x    frame=974556 fps=4329 q=-1.0 size=18129920kB time=04:30:42.75 bitrate=9143.8kbits/s speed=72.1x    frame=976890 fps=4329 q=-1.0 size=18169856kB time=04:31:21.64 bitrate=9142.0kbits/s speed=72.2x    frame=979199 fps=4330 q=-1.0 size=18211072kB time=04:32:00.13 bitrate=9141.2kbits/s speed=72.2x    frame=981545 fps=4331 q=-1.0 size=18255616kB time=04:32:39.23 bitrate=9141.6kbits/s speed=72.2x    frame=983645 fps=4330 q=-1.0 size=18294528kB time=04:33:14.24 bitrate=9141.5kbits/s speed=72.2x    frame=985848 fps=4331 q=-1.0 size=18338304kB time=04:33:50.94 bitrate=9143.0kbits/s speed=72.2x    frame=988452 fps=4333 q=-1.0 size=18381568kB time=04:34:34.35 bitrate=9140.4kbits/s speed=72.2x    frame=990906 fps=4334 q=-1.0 size=18423808kB time=04:35:15.24 bitrate=9138.7kbits/s speed=72.2x    frame=993469 fps=4336 q=-1.0 size=18467072kB time=04:35:57.96 bitrate=9136.5kbits/s speed=72.3x    frame=995676 fps=4336 q=-1.0 size=18510080kB time=04:36:34.74 bitrate=9137.5kbits/s speed=72.3x    frame=998308 fps=4338 q=-1.0 size=18551552kB time=04:37:18.61 bitrate=9133.8kbits/s speed=72.3x    frame=1000937 fps=4340 q=-1.0 size=18593792kB time=04:38:02.43 bitrate=9130.6kbits/s speed=72.3x    frame=1003571 fps=4342 q=-1.0 size=18636288kB time=04:38:46.34 bitrate=9127.4kbits/s speed=72.4x    frame=1005815 fps=4342 q=-1.0 size=18680064kB time=04:39:23.73 bitrate=9128.5kbits/s speed=72.4x    frame=1008210 fps=4343 q=-1.0 size=18722816kB time=04:40:03.65 bitrate=9127.6kbits/s speed=72.4x    frame=1010573 fps=4344 q=-1.0 size=18765824kB time=04:40:43.03 bitrate=9127.2kbits/s speed=72.4x    frame=1012821 fps=4344 q=-1.0 size=18809856kB time=04:41:20.49 bitrate=9128.3kbits/s speed=72.4x    frame=1015292 fps=4345 q=-1.0 size=18850560kB time=04:42:01.68 bitrate=9125.8kbits/s speed=72.4x    frame=1017457 fps=4345 q=-1.0 size=18892288kB time=04:42:37.76 bitrate=9126.5kbits/s speed=72.4x    frame=1019718 fps=4346 q=-1.0 size=18936576kB time=04:43:15.46 bitrate=9127.6kbits/s speed=72.4x    frame=1021800 fps=4345 q=-1.0 size=18978304kB time=04:43:50.14 bitrate=9129.1kbits/s speed=72.4x    frame=1024317 fps=4347 q=-1.0 size=19019008kB time=04:44:32.09 bitrate=9126.2kbits/s speed=72.4x    frame=1026436 fps=4347 q=-1.0 size=19061760kB time=04:45:07.41 bitrate=9127.9kbits/s speed=72.4x    frame=1028750 fps=4347 q=-1.0 size=19102464kB time=04:45:45.98 bitrate=9126.8kbits/s speed=72.5x    frame=1031248 fps=4348 q=-1.0 size=19145728kB time=04:46:27.61 bitrate=9125.3kbits/s speed=72.5x    frame=1033640 fps=4349 q=-1.0 size=19188992kB time=04:47:07.48 bitrate=9124.7kbits/s speed=72.5x    frame=1035744 fps=4349 q=-1.0 size=19228928kB time=04:47:42.54 bitrate=9125.2kbits/s speed=72.5x    frame=1037866 fps=4349 q=-1.0 size=19271424kB time=04:48:17.92 bitrate=9126.6kbits/s speed=72.5x    frame=1040257 fps=4350 q=-1.0 size=19313408kB time=04:48:57.76 bitrate=9125.5kbits/s speed=72.5x    frame=1042258 fps=4349 q=-1.0 size=19351040kB time=04:49:31.11 bitrate=9125.7kbits/s speed=72.5x    frame=1044670 fps=4350 q=-1.0 size=19392512kB time=04:50:11.31 bitrate=9124.2kbits/s speed=72.5x    frame=1046864 fps=4350 q=-1.0 size=19431936kB time=04:50:47.88 bitrate=9123.5kbits/s speed=72.5x    frame=1049041 fps=4350 q=-1.0 size=19469312kB time=04:51:24.16 bitrate=9122.1kbits/s speed=72.5x    frame=1053192 fps=4358 q=-1.0 size=19511040kB time=04:52:33.34 bitrate=9105.6kbits/s speed=72.6x    frame=1056508 fps=4363 q=-1.0 size=19548160kB time=04:53:28.61 bitrate=9094.3kbits/s speed=72.7x    frame=1061063 fps=4373 q=-1.0 size=19589120kB time=04:54:44.53 bitrate=9074.3kbits/s speed=72.9x    frame=1063839 fps=4375 q=-1.0 size=19629824kB time=04:55:30.79 bitrate=9069.4kbits/s speed=72.9x    frame=1067780 fps=4382 q=-1.0 size=19666944kB time=04:56:36.48 bitrate=9053.0kbits/s speed=  73x    frame=1072022 fps=4391 q=-1.0 size=19707392kB time=04:57:47.18 bitrate=9035.7kbits/s speed=73.2x    frame=1075581 fps=4396 q=-1.0 size=19747584kB time=04:58:46.49 bitrate=9024.2kbits/s speed=73.3x    frame=1078843 fps=4401 q=-1.0 size=19785728kB time=04:59:40.86 bitrate=9014.3kbits/s speed=73.3x    frame=1081604 fps=4403 q=-1.0 size=19826688kB time=05:00:26.88 bitrate=9009.9kbits/s speed=73.4x    frame=1084238 fps=4405 q=-1.0 size=19865088kB time=05:01:10.78 bitrate=9005.4kbits/s speed=73.4x    frame=1089326 fps=4416 q=-1.0 size=19903488kB time=05:02:35.58 bitrate=8980.7kbits/s speed=73.6x    frame=1091598 fps=4417 q=-1.0 size=19945216kB time=05:03:13.45 bitrate=8980.8kbits/s speed=73.6x    frame=1093841 fps=4417 q=-1.0 size=19983616kB time=05:03:50.83 bitrate=8979.6kbits/s speed=73.6x    frame=1096212 fps=4417 q=-1.0 size=20024576kB time=05:04:30.36 bitrate=8978.5kbits/s speed=73.6x    frame=1098802 fps=4419 q=-1.0 size=20066816kB time=05:05:13.51 bitrate=8976.3kbits/s speed=73.6x    frame=1101779 fps=4422 q=-1.0 size=20101632kB time=05:06:03.14 bitrate=8967.6kbits/s speed=73.7x    frame=1105054 fps=4426 q=-1.0 size=20143616kB time=05:06:57.71 bitrate=8959.7kbits/s speed=73.8x    frame=1107178 fps=4426 q=-1.0 size=20183808kB time=05:07:33.12 bitrate=8960.3kbits/s speed=73.8x    frame=1109124 fps=4425 q=-1.0 size=20223232kB time=05:08:05.54 bitrate=8962.1kbits/s speed=73.7x    frame=1111368 fps=4425 q=-1.0 size=20265984kB time=05:08:42.94 bitrate=8962.9kbits/s speed=73.7x    frame=1113359 fps=4424 q=-1.0 size=20305920kB time=05:09:16.14 bitrate=8964.5kbits/s speed=73.7x    frame=1116602 fps=4428 q=-1.0 size=20346112kB time=05:10:10.18 bitrate=8956.1kbits/s speed=73.8x    frame=1119546 fps=4431 q=-1.0 size=20387584kB time=05:10:59.24 bitrate=8950.8kbits/s speed=73.9x    frame=1122093 fps=4432 q=-1.0 size=20423424kB time=05:11:41.70 bitrate=8946.2kbits/s speed=73.9x    frame=1124983 fps=4435 q=-1.0 size=20465152kB time=05:12:29.86 bitrate=8941.4kbits/s speed=73.9x    frame=1127757 fps=4437 q=-1.0 size=20505600kB time=05:13:16.10 bitrate=8937.1kbits/s speed=  74x    frame=1130273 fps=4438 q=-1.0 size=20543488kB time=05:13:58.04 bitrate=8933.6kbits/s speed=  74x    frame=1132884 fps=4440 q=-1.0 size=20584448kB time=05:14:41.54 bitrate=8930.8kbits/s speed=  74x    frame=1136264 fps=4444 q=-1.0 size=20624128kB time=05:15:37.88 bitrate=8921.4kbits/s speed=74.1x    frame=1138631 fps=4445 q=-1.0 size=20662272kB time=05:16:17.33 bitrate=8919.3kbits/s speed=74.1x    frame=1140638 fps=4444 q=-1.0 size=20704256kB time=05:16:50.78 bitrate=8921.7kbits/s speed=74.1x    frame=1142665 fps=4443 q=-1.0 size=20742144kB time=05:17:24.56 bitrate=8922.2kbits/s speed=74.1x    frame=1144735 fps=4443 q=-1.0 size=20785152kB time=05:17:59.06 bitrate=8924.5kbits/s speed=  74x    frame=1146934 fps=4443 q=-1.0 size=20827648kB time=05:18:35.71 bitrate=8925.6kbits/s speed=  74x    frame=1148992 fps=4442 q=-1.0 size=20866048kB time=05:19:10.01 bitrate=8926.1kbits/s speed=  74x    frame=1152485 fps=4447 q=-1.0 size=20907776kB time=05:20:08.23 bitrate=8916.8kbits/s speed=74.1x    frame=1155035 fps=4448 q=-1.0 size=20949248kB time=05:20:50.73 bitrate=8914.8kbits/s speed=74.1x    frame=1157775 fps=4450 q=-1.0 size=20989952kB time=05:21:36.39 bitrate=8911.0kbits/s speed=74.2x    frame=1160237 fps=4451 q=-1.0 size=21033472kB time=05:22:17.43 bitrate=8910.5kbits/s speed=74.2x    frame=1163021 fps=4453 q=-1.0 size=21073152kB time=05:23:03.83 bitrate=8905.9kbits/s speed=74.2x    frame=1165738 fps=4455 q=-1.0 size=21114112kB time=05:23:49.11 bitrate=8902.5kbits/s speed=74.3x    frame=1170374 fps=4464 q=-1.0 size=21155840kB time=05:25:06.39 bitrate=8884.7kbits/s speed=74.4x    frame=1172753 fps=4465 q=-1.0 size=21194240kB time=05:25:46.03 bitrate=8882.8kbits/s speed=74.4x    frame=1175346 fps=4466 q=-1.0 size=21235968kB time=05:26:29.25 bitrate=8880.6kbits/s speed=74.4x    frame=1177917 fps=4467 q=-1.0 size=21278720kB time=05:27:12.11 bitrate=8879.1kbits/s speed=74.5x    frame=1180613 fps=4469 q=-1.0 size=21318400kB time=05:27:57.03 bitrate=8875.3kbits/s speed=74.5x    frame=1183581 fps=4472 q=-1.0 size=21361408kB time=05:28:46.49 bitrate=8870.9kbits/s speed=74.5x    frame=1186527 fps=4475 q=-1.0 size=21402880kB time=05:29:35.59 bitrate=8866.1kbits/s speed=74.6x    frame=1189129 fps=4476 q=-1.0 size=21443584kB time=05:30:18.96 bitrate=8863.5kbits/s speed=74.6x    frame=1191629 fps=4477 q=-1.0 size=21486336kB time=05:31:00.63 bitrate=8862.6kbits/s speed=74.6x    frame=1193656 fps=4476 q=-1.0 size=21527808kB time=05:31:34.41 bitrate=8864.6kbits/s speed=74.6x    frame=1196712 fps=4479 q=-1.0 size=21562368kB time=05:32:25.34 bitrate=8856.1kbits/s speed=74.7x    frame=1199116 fps=4480 q=-1.0 size=21596416kB time=05:33:05.41 bitrate=8852.3kbits/s speed=74.7x    frame=1201512 fps=4480 q=-1.0 size=21633280kB time=05:33:45.34 bitrate=8849.8kbits/s speed=74.7x    frame=1204777 fps=4484 q=-1.0 size=21676544kB time=05:34:39.76 bitrate=8843.4kbits/s speed=74.7x    frame=1207476 fps=4486 q=-1.0 size=21718016kB time=05:35:24.74 bitrate=8840.6kbits/s speed=74.8x    frame=1209783 fps=4486 q=-1.0 size=21759488kB time=05:36:03.19 bitrate=8840.5kbits/s speed=74.8x    frame=1212257 fps=4487 q=-1.0 size=21803264kB time=05:36:44.44 bitrate=8840.3kbits/s speed=74.8x    frame=1214442 fps=4487 q=-1.0 size=21844224kB time=05:37:20.85 bitrate=8840.9kbits/s speed=74.8x    frame=1216852 fps=4487 q=-1.0 size=21886976kB time=05:38:01.01 bitrate=8840.7kbits/s speed=74.8x    frame=1219220 fps=4488 q=-1.0 size=21929472kB time=05:38:40.48 bitrate=8840.6kbits/s speed=74.8x    frame=1221277 fps=4487 q=-1.0 size=21967872kB time=05:39:14.76 bitrate=8841.2kbits/s speed=74.8x    frame=1223608 fps=4487 q=-1.0 size=22010880kB time=05:39:53.62 bitrate=8841.6kbits/s speed=74.8x    frame=1225825 fps=4487 q=-1.0 size=22053376kB time=05:40:30.56 bitrate=8842.7kbits/s speed=74.8x    frame=1227787 fps=4486 q=-1.0 size=22091520kB time=05:41:03.27 bitrate=8843.8kbits/s speed=74.8x    frame=1230015 fps=4486 q=-1.0 size=22132736kB time=05:41:40.39 bitrate=8844.3kbits/s speed=74.8x    frame=1232119 fps=4486 q=-1.0 size=22173184kB time=05:42:15.46 bitrate=8845.3kbits/s speed=74.8x    frame=1234019 fps=4484 q=-1.0 size=22210304kB time=05:42:47.13 bitrate=8846.5kbits/s speed=74.7x    frame=1236214 fps=4484 q=-1.0 size=22252032kB time=05:43:23.71 bitrate=8847.4kbits/s speed=74.7x    frame=1239287 fps=4487 q=-1.0 size=22289664kB time=05:44:14.93 bitrate=8840.4kbits/s speed=74.8x    frame=1241504 fps=4487 q=-1.0 size=22329344kB time=05:44:51.88 bitrate=8840.3kbits/s speed=74.8x    frame=1244133 fps=4488 q=-1.0 size=22369280kB time=05:45:35.69 bitrate=8837.4kbits/s speed=74.8x    frame=1246491 fps=4489 q=-1.0 size=22405632kB time=05:46:14.99 bitrate=8835.0kbits/s speed=74.8x    frame=1249179 fps=4490 q=-1.0 size=22446080kB time=05:46:59.79 bitrate=8831.9kbits/s speed=74.8x    frame=1251844 fps=4492 q=-1.0 size=22488320kB time=05:47:44.21 bitrate=8829.7kbits/s speed=74.9x    frame=1254332 fps=4493 q=-1.0 size=22528000kB time=05:48:25.68 bitrate=8827.7kbits/s speed=74.9x    frame=1257045 fps=4495 q=-1.0 size=22570240kB time=05:49:10.89 bitrate=8825.2kbits/s speed=74.9x    frame=1259606 fps=4496 q=-1.0 size=22610432kB time=05:49:53.58 bitrate=8822.9kbits/s speed=74.9x    frame=1262108 fps=4497 q=-1.0 size=22650880kB time=05:50:35.28 bitrate=8821.2kbits/s speed=74.9x    frame=1264886 fps=4498 q=-1.0 size=22694144kB time=05:51:21.58 bitrate=8818.6kbits/s speed=  75x    frame=1267494 fps=4500 q=-1.0 size=22734080kB time=05:52:05.04 bitrate=8816.0kbits/s speed=  75x    frame=1270213 fps=4501 q=-1.0 size=22777344kB time=05:52:50.37 bitrate=8813.8kbits/s speed=  75x    frame=1272888 fps=4503 q=-1.0 size=22821632kB time=05:53:34.94 bitrate=8812.4kbits/s speed=  75x    frame=1275259 fps=4503 q=-1.0 size=22859520kB time=05:54:14.46 bitrate=8810.6kbits/s speed=75.1x    frame=1277560 fps=4503 q=-1.0 size=22899200kB time=05:54:52.81 bitrate=8810.0kbits/s speed=75.1x    frame=1279785 fps=4503 q=-1.0 size=22935040kB time=05:55:29.90 bitrate=8808.5kbits/s speed=75.1x    frame=1282202 fps=4504 q=-1.0 size=22973952kB time=05:56:10.18 bitrate=8806.8kbits/s speed=75.1x    frame=1284772 fps=4505 q=-1.0 size=23016448kB time=05:56:53.01 bitrate=8805.4kbits/s speed=75.1x    frame=1287040 fps=4505 q=-1.0 size=23054080kB time=05:57:30.81 bitrate=8804.3kbits/s speed=75.1x    frame=1289347 fps=4505 q=-1.0 size=23095808kB time=05:58:09.26 bitrate=8804.4kbits/s speed=75.1x    frame=1291986 fps=4507 q=-1.0 size=23137024kB time=05:58:53.25 bitrate=8802.1kbits/s speed=75.1x    frame=1294569 fps=4508 q=-1.0 size=23180032kB time=05:59:36.30 bitrate=8800.9kbits/s speed=75.1x    frame=1297248 fps=4509 q=-1.0 size=23223808kB time=06:00:20.95 bitrate=8799.3kbits/s speed=75.2x    frame=1299392 fps=4509 q=-1.0 size=23262464kB time=06:00:56.68 bitrate=8799.4kbits/s speed=75.1x    frame=1302057 fps=4510 q=-1.0 size=23305728kB time=06:01:41.09 bitrate=8797.7kbits/s speed=75.2x    frame=1304761 fps=4512 q=-1.0 size=23350016kB time=06:02:26.16 bitrate=8796.2kbits/s speed=75.2x    frame=1307138 fps=4512 q=-1.0 size=23388928kB time=06:03:05.78 bitrate=8794.8kbits/s speed=75.2x    frame=1309463 fps=4512 q=-1.0 size=23427328kB time=06:03:44.53 bitrate=8793.6kbits/s speed=75.2x    frame=1311688 fps=4512 q=-1.0 size=23467008kB time=06:04:21.61 bitrate=8793.6kbits/s speed=75.2x    frame=1314335 fps=4514 q=-1.0 size=23511296kB time=06:05:05.73 bitrate=8792.4kbits/s speed=75.2x    frame=1316794 fps=4514 q=-1.0 size=23551744kB time=06:05:46.71 bitrate=8791.1kbits/s speed=75.2x    frame=1319341 fps=4515 q=-1.0 size=23594752kB time=06:06:29.16 bitrate=8790.2kbits/s speed=75.3x    frame=1321664 fps=4516 q=-1.0 size=23633664kB time=06:07:07.88 bitrate=8789.2kbits/s speed=75.3x    frame=1324390 fps=4517 q=-1.0 size=23675392kB time=06:07:53.31 bitrate=8786.6kbits/s speed=75.3x    frame=1327119 fps=4519 q=-1.0 size=23718912kB time=06:08:38.80 bitrate=8784.6kbits/s speed=75.3x    frame=1329533 fps=4519 q=-1.0 size=23757312kB time=06:09:19.03 bitrate=8782.9kbits/s speed=75.3x    frame=1332328 fps=4521 q=-1.0 size=23802624kB time=06:10:05.61 bitrate=8781.2kbits/s speed=75.4x    frame=1334927 fps=4522 q=-1.0 size=23844608kB time=06:10:48.93 bitrate=8779.5kbits/s speed=75.4x    frame=1337135 fps=4522 q=-1.0 size=23883776kB time=06:11:25.74 bitrate=8779.4kbits/s speed=75.4x    frame=1339537 fps=4522 q=-1.0 size=23925760kB time=06:12:05.76 bitrate=8779.1kbits/s speed=75.4x    frame=1341910 fps=4523 q=-1.0 size=23965440kB time=06:12:45.31 bitrate=8778.1kbits/s speed=75.4x    frame=1344326 fps=4523 q=-1.0 size=24006400kB time=06:13:25.59 bitrate=8777.3kbits/s speed=75.4x    frame=1346795 fps=4524 q=-1.0 size=24049408kB time=06:14:06.74 bitrate=8776.9kbits/s speed=75.4x    frame=1349219 fps=4525 q=-1.0 size=24090880kB time=06:14:47.13 bitrate=8776.2kbits/s speed=75.4x    frame=1351734 fps=4525 q=-1.0 size=24133632kB time=06:15:29.04 bitrate=8775.5kbits/s speed=75.4x    frame=1354096 fps=4526 q=-1.0 size=24175360kB time=06:16:08.41 bitrate=8775.3kbits/s speed=75.4x    frame=1356235 fps=4525 q=-1.0 size=24213760kB time=06:16:44.07 bitrate=8775.4kbits/s speed=75.4x    frame=1358691 fps=4526 q=-1.0 size=24254720kB time=06:17:24.99 bitrate=8774.3kbits/s speed=75.4x    frame=1361056 fps=4526 q=-1.0 size=24295168kB time=06:18:04.42 bitrate=8773.7kbits/s speed=75.4x    frame=1363320 fps=4526 q=-1.0 size=24334080kB time=06:18:42.15 bitrate=8773.1kbits/s speed=75.4x    frame=1365832 fps=4527 q=-1.0 size=24376576kB time=06:19:24.01 bitrate=8772.3kbits/s speed=75.5x    frame=1368137 fps=4527 q=-1.0 size=24416000kB time=06:20:02.43 bitrate=8771.7kbits/s speed=75.5x    frame=1370440 fps=4527 q=-1.0 size=24454912kB time=06:20:40.81 bitrate=8770.9kbits/s speed=75.5x    frame=1372872 fps=4528 q=-1.0 size=24495616kB time=06:21:21.34 bitrate=8769.9kbits/s speed=75.5x    frame=1375490 fps=4529 q=-1.0 size=24538368kB time=06:22:04.98 bitrate=8768.5kbits/s speed=75.5x    frame=1377596 fps=4529 q=-1.0 size=24575744kB time=06:22:40.08 bitrate=8768.5kbits/s speed=75.5x    frame=1380308 fps=4530 q=-1.0 size=24617216kB time=06:23:25.28 bitrate=8766.0kbits/s speed=75.5x    frame=1382921 fps=4531 q=-1.0 size=24659968kB time=06:24:08.83 bitrate=8764.6kbits/s speed=75.5x    frame=1385508 fps=4532 q=-1.0 size=24698368kB time=06:24:51.94 bitrate=8761.9kbits/s speed=75.5x    frame=1388308 fps=4534 q=-1.0 size=24741632kB time=06:25:38.61 bitrate=8759.5kbits/s speed=75.6x    frame=1390999 fps=4535 q=-1.0 size=24782848kB time=06:26:23.47 bitrate=8757.1kbits/s speed=75.6x    frame=1393594 fps=4536 q=-1.0 size=24822528kB time=06:27:06.71 bitrate=8754.8kbits/s speed=75.6x    frame=1396273 fps=4538 q=-1.0 size=24866048kB time=06:27:51.36 bitrate=8753.4kbits/s speed=75.6x    frame=1398640 fps=4538 q=-1.0 size=24906240kB time=06:28:30.81 bitrate=8752.7kbits/s speed=75.6x    frame=1401229 fps=4539 q=-1.0 size=24950272kB time=06:29:13.96 bitrate=8751.9kbits/s speed=75.7x    frame=1403638 fps=4540 q=-1.0 size=24993536kB time=06:29:54.11 bitrate=8752.1kbits/s speed=75.7x    frame=1406150 fps=4540 q=-1.0 size=25036288kB time=06:30:35.99 bitrate=8751.4kbits/s speed=75.7x    frame=1408562 fps=4541 q=-1.0 size=25079552kB time=06:31:16.18 bitrate=8751.5kbits/s speed=75.7x    frame=1411049 fps=4541 q=-1.0 size=25120256kB time=06:31:57.63 bitrate=8750.2kbits/s speed=75.7x    frame=1413427 fps=4542 q=-1.0 size=25161984kB time=06:32:37.27 bitrate=8750.0kbits/s speed=75.7x    frame=1415887 fps=4542 q=-1.0 size=25205248kB time=06:33:18.27 bitrate=8749.9kbits/s speed=75.7x    frame=1418134 fps=4542 q=-1.0 size=25244416kB time=06:33:55.71 bitrate=8749.6kbits/s speed=75.7x    frame=1420477 fps=4543 q=-1.0 size=25286400kB time=06:34:34.76 bitrate=8749.7kbits/s speed=75.7x    frame=1423118 fps=4544 q=-1.0 size=25329664kB time=06:35:18.78 bitrate=8748.4kbits/s speed=75.7x    frame=1425199 fps=4543 q=-1.0 size=25364736kB time=06:35:53.46 bitrate=8747.7kbits/s speed=75.7x    frame=1427223 fps=4542 q=-1.0 size=25398784kB time=06:36:27.19 bitrate=8747.0kbits/s speed=75.7x    frame=1429603 fps=4543 q=-1.0 size=25441792kB time=06:37:06.86 bitrate=8747.2kbits/s speed=75.7x    frame=1431996 fps=4543 q=-1.0 size=25483264kB time=06:37:46.75 bitrate=8746.8kbits/s speed=75.7x    frame=1434369 fps=4543 q=-1.0 size=25522944kB time=06:38:26.30 bitrate=8746.0kbits/s speed=75.7x    frame=1436704 fps=4544 q=-1.0 size=25561856kB time=06:39:05.22 bitrate=8745.1kbits/s speed=75.7x    frame=1439154 fps=4544 q=-1.0 size=25604096kB time=06:39:46.05 bitrate=8744.6kbits/s speed=75.7x    frame=1441597 fps=4545 q=-1.0 size=25646336kB time=06:40:26.76 bitrate=8744.2kbits/s speed=75.7x    frame=1443779 fps=4544 q=-1.0 size=25685504kB time=06:41:03.13 bitrate=8744.3kbits/s speed=75.7x    frame=1448110 fps=4551 q=-1.0 size=25726208kB time=06:42:15.31 bitrate=8732.0kbits/s speed=75.8x    frame=1450614 fps=4552 q=-1.0 size=25770240kB time=06:42:57.04 bitrate=8731.8kbits/s speed=75.9x    frame=1452541 fps=4550 q=-1.0 size=25809920kB time=06:43:29.17 bitrate=8733.7kbits/s speed=75.8x    frame=1454696 fps=4550 q=-1.0 size=25854720kB time=06:44:05.08 bitrate=8735.9kbits/s speed=75.8x    frame=1456711 fps=4549 q=-1.0 size=25896704kB time=06:44:38.66 bitrate=8738.0kbits/s speed=75.8x    frame=1458619 fps=4548 q=-1.0 size=25936384kB time=06:45:10.46 bitrate=8739.9kbits/s speed=75.8x    frame=1460699 fps=4548 q=-1.0 size=25979648kB time=06:45:45.13 bitrate=8742.0kbits/s speed=75.8x    frame=1462652 fps=4547 q=-1.0 size=26020608kB time=06:46:17.68 bitrate=8744.1kbits/s speed=75.8x    frame=1464499 fps=4545 q=-1.0 size=26058752kB time=06:46:48.47 bitrate=8745.9kbits/s speed=75.8x    frame=1466537 fps=4544 q=-1.0 size=26101248kB time=06:47:22.43 bitrate=8748.0kbits/s speed=75.7x    frame=1468504 fps=4544 q=-1.0 size=26142208kB time=06:47:55.21 bitrate=8750.0kbits/s speed=75.7x    frame=1470706 fps=4543 q=-1.0 size=26187776kB time=06:48:31.91 bitrate=8752.1kbits/s speed=75.7x    frame=1472795 fps=4543 q=-1.0 size=26231296kB time=06:49:06.73 bitrate=8754.2kbits/s speed=75.7x    frame=1474715 fps=4542 q=-1.0 size=26270976kB time=06:49:38.73 bitrate=8756.0kbits/s speed=75.7x    frame=1476768 fps=4541 q=-1.0 size=26313984kB time=06:50:12.94 bitrate=8758.2kbits/s speed=75.7x    frame=1478762 fps=4540 q=-1.0 size=26355200kB time=06:50:46.19 bitrate=8760.0kbits/s speed=75.7x    frame=1480500 fps=4538 q=-1.0 size=26391808kB time=06:51:15.14 bitrate=8761.9kbits/s speed=75.6x    frame=1482351 fps=4537 q=-1.0 size=26429952kB time=06:51:46.00 bitrate=8763.6kbits/s speed=75.6x    frame=1484233 fps=4536 q=-1.0 size=26469120kB time=06:52:17.36 bitrate=8765.5kbits/s speed=75.6x    frame=1486198 fps=4535 q=-1.0 size=26509824kB time=06:52:50.11 bitrate=8767.4kbits/s speed=75.6x    frame=1488265 fps=4534 q=-1.0 size=26553088kB time=06:53:24.56 bitrate=8769.5kbits/s speed=75.6x    frame=1490234 fps=4534 q=-1.0 size=26591488kB time=06:53:57.38 bitrate=8770.5kbits/s speed=75.6x    frame=1492310 fps=4533 q=-1.0 size=26634752kB time=06:54:31.98 bitrate=8772.6kbits/s speed=75.6x    frame=1494447 fps=4533 q=-1.0 size=26679296kB time=06:55:07.59 bitrate=8774.7kbits/s speed=75.5x    frame=1496319 fps=4531 q=-1.0 size=26718208kB time=06:55:38.79 bitrate=8776.5kbits/s speed=75.5x    frame=1498359 fps=4531 q=-1.0 size=26760704kB time=06:56:12.79 bitrate=8778.5kbits/s speed=75.5x    frame=1500381 fps=4530 q=-1.0 size=26802688kB time=06:56:46.51 bitrate=8780.4kbits/s speed=75.5x    frame=1502483 fps=4529 q=-1.0 size=26846720kB time=06:57:21.54 bitrate=8782.5kbits/s speed=75.5x    frame=1504560 fps=4529 q=-1.0 size=26889728kB time=06:57:56.14 bitrate=8784.5kbits/s speed=75.5x    frame=1506545 fps=4528 q=-1.0 size=26930944kB time=06:58:29.23 bitrate=8786.3kbits/s speed=75.5x    frame=1508651 fps=4528 q=-1.0 size=26974720kB time=06:59:04.34 bitrate=8788.3kbits/s speed=75.5x    frame=1510761 fps=4527 q=-1.0 size=27018752kB time=06:59:39.50 bitrate=8790.4kbits/s speed=75.5x    frame=1512795 fps=4526 q=-1.0 size=27060992kB time=07:00:13.39 bitrate=8792.3kbits/s speed=75.4x    frame=1514900 fps=4526 q=-1.0 size=27104768kB time=07:00:48.49 bitrate=8794.3kbits/s speed=75.4x    frame=1516933 fps=4525 q=-1.0 size=27147008kB time=07:01:22.36 bitrate=8796.2kbits/s speed=75.4x    frame=1519022 fps=4525 q=-1.0 size=27190528kB time=07:01:57.18 bitrate=8798.2kbits/s speed=75.4x    frame=1521095 fps=4524 q=-1.0 size=27233536kB time=07:02:31.73 bitrate=8800.1kbits/s speed=75.4x    frame=1523030 fps=4523 q=-1.0 size=27273728kB time=07:03:03.98 bitrate=8801.9kbits/s speed=75.4x    frame=1525175 fps=4523 q=-1.0 size=27312640kB time=07:03:39.73 bitrate=8802.0kbits/s speed=75.4x    frame=1527314 fps=4522 q=-1.0 size=27357184kB time=07:04:15.38 bitrate=8804.0kbits/s speed=75.4x    frame=1529368 fps=4522 q=-1.0 size=27399936kB time=07:04:49.61 bitrate=8806.0kbits/s speed=75.4x    frame=1531460 fps=4521 q=-1.0 size=27443456kB time=07:05:24.48 bitrate=8807.9kbits/s speed=75.4x    frame=1533466 fps=4521 q=-1.0 size=27485184kB time=07:05:57.91 bitrate=8809.7kbits/s speed=75.3x    frame=1535482 fps=4520 q=-1.0 size=27527168kB time=07:06:31.51 bitrate=8811.6kbits/s speed=75.3x    frame=1537499 fps=4519 q=-1.0 size=27568896kB time=07:07:05.13 bitrate=8813.4kbits/s speed=75.3x    frame=1539459 fps=4518 q=-1.0 size=27609856kB time=07:07:37.79 bitrate=8815.3kbits/s speed=75.3x    frame=1541471 fps=4518 q=-1.0 size=27651584kB time=07:08:11.33 bitrate=8817.1kbits/s speed=75.3x    frame=1543525 fps=4517 q=-1.0 size=27694336kB time=07:08:45.57 bitrate=8818.9kbits/s speed=75.3x    frame=1545367 fps=4516 q=-1.0 size=27732736kB time=07:09:16.27 bitrate=8820.6kbits/s speed=75.3x    frame=1547335 fps=4515 q=-1.0 size=27773696kB time=07:09:49.06 bitrate=8822.4kbits/s speed=75.2x    frame=1549391 fps=4514 q=-1.0 size=27816704kB time=07:10:23.34 bitrate=8824.4kbits/s speed=75.2x    frame=1551278 fps=4513 q=-1.0 size=27855616kB time=07:10:54.78 bitrate=8826.0kbits/s speed=75.2x    frame=1553207 fps=4512 q=-1.0 size=27895808kB time=07:11:26.93 bitrate=8827.7kbits/s speed=75.2x    frame=1555163 fps=4511 q=-1.0 size=27936512kB time=07:11:59.53 bitrate=8829.5kbits/s speed=75.2x    frame=1557143 fps=4511 q=-1.0 size=27977728kB time=07:12:32.53 bitrate=8831.3kbits/s speed=75.2x    frame=1559120 fps=4510 q=-1.0 size=28018688kB time=07:13:05.48 bitrate=8833.0kbits/s speed=75.2x    frame=1561037 fps=4509 q=-1.0 size=28058624kB time=07:13:37.43 bitrate=8834.7kbits/s speed=75.1x    frame=1563243 fps=4509 q=-1.0 size=28102912kB time=07:14:14.21 bitrate=8836.2kbits/s speed=75.1x    frame=1565359 fps=4508 q=-1.0 size=28146944kB time=07:14:49.46 bitrate=8838.0kbits/s speed=75.1x    frame=1567274 fps=4507 q=-1.0 size=28186624kB time=07:15:21.39 bitrate=8839.7kbits/s speed=75.1x    frame=1569313 fps=4507 q=-1.0 size=28229120kB time=07:15:55.37 bitrate=8841.5kbits/s speed=75.1x    frame=1571436 fps=4506 q=-1.0 size=28273408kB time=07:16:30.74 bitrate=8843.4kbits/s speed=75.1x    frame=1573242 fps=4505 q=-1.0 size=28310784kB time=07:17:00.84 bitrate=8844.9kbits/s speed=75.1x    frame=1575319 fps=4504 q=-1.0 size=28354048kB time=07:17:35.47 bitrate=8846.8kbits/s speed=75.1x    frame=1577350 fps=4504 q=-1.0 size=28396288kB time=07:18:09.32 bitrate=8848.5kbits/s speed=75.1x    frame=1579392 fps=4503 q=-1.0 size=28439040kB time=07:18:43.34 bitrate=8850.4kbits/s speed=75.1x    frame=1581434 fps=4503 q=-1.0 size=28481280kB time=07:19:17.38 bitrate=8852.1kbits/s speed=  75x    frame=1583363 fps=4502 q=-1.0 size=28521216kB time=07:19:49.53 bitrate=8853.7kbits/s speed=  75x    frame=1585290 fps=4501 q=-1.0 size=28561408kB time=07:20:21.65 bitrate=8855.4kbits/s speed=  75x    frame=1587400 fps=4500 q=-1.0 size=28605440kB time=07:20:56.81 bitrate=8857.3kbits/s speed=  75x    frame=1589455 fps=4500 q=-1.0 size=28647936kB time=07:21:31.07 bitrate=8859.0kbits/s speed=  75x    frame=1591560 fps=4499 q=-1.0 size=28690688kB time=07:22:06.14 bitrate=8860.5kbits/s speed=  75x    frame=1593730 fps=4499 q=-1.0 size=28736000kB time=07:22:42.31 bitrate=8862.4kbits/s speed=  75x    frame=1595695 fps=4498 q=-1.0 size=28776960kB time=07:23:15.06 bitrate=8864.1kbits/s speed=  75x    frame=1597853 fps=4498 q=-1.0 size=28821760kB time=07:23:51.03 bitrate=8865.9kbits/s speed=  75x    frame=1599892 fps=4497 q=-1.0 size=28864512kB time=07:24:25.01 bitrate=8867.7kbits/s speed=  75x    frame=1601879 fps=4497 q=-1.0 size=28905472kB time=07:24:58.13 bitrate=8869.3kbits/s speed=74.9x    frame=1604055 fps=4496 q=-1.0 size=28950784kB time=07:25:34.40 bitrate=8871.1kbits/s speed=74.9x    frame=1605994 fps=4496 q=-1.0 size=28990976kB time=07:26:06.72 bitrate=8872.7kbits/s speed=74.9x    frame=1608099 fps=4495 q=-1.0 size=29034752kB time=07:26:41.79 bitrate=8874.5kbits/s speed=74.9x    frame=1610182 fps=4495 q=-1.0 size=29078272kB time=07:27:16.52 bitrate=8876.3kbits/s speed=74.9x    frame=1612106 fps=4494 q=-1.0 size=29118208kB time=07:27:48.58 bitrate=8877.9kbits/s speed=74.9x    frame=1614249 fps=4494 q=-1.0 size=29162752kB time=07:28:24.29 bitrate=8879.7kbits/s speed=74.9x    frame=1616193 fps=4493 q=-1.0 size=29203200kB time=07:28:56.70 bitrate=8881.3kbits/s speed=74.9x    frame=1617694 fps=4491 q=-1.0 size=29234432kB time=07:29:21.71 bitrate=8882.5kbits/s speed=74.8x    frame=1619657 fps=4490 q=-1.0 size=29275136kB time=07:29:54.43 bitrate=8884.1kbits/s speed=74.8x    frame=1621761 fps=4489 q=-1.0 size=29318144kB time=07:30:29.49 bitrate=8885.6kbits/s speed=74.8x    frame=1623926 fps=4489 q=-1.0 size=29363200kB time=07:31:05.58 bitrate=8887.4kbits/s speed=74.8x    frame=1625990 fps=4489 q=-1.0 size=29406208kB time=07:31:39.98 bitrate=8889.1kbits/s speed=74.8x    frame=1627883 fps=4488 q=-1.0 size=29445376kB time=07:32:11.54 bitrate=8890.6kbits/s speed=74.8x    frame=1630033 fps=4487 q=-1.0 size=29490176kB time=07:32:47.36 bitrate=8892.4kbits/s speed=74.8x    frame=1632215 fps=4487 q=-1.0 size=29535488kB time=07:33:23.73 bitrate=8894.2kbits/s speed=74.8x    frame=1634179 fps=4487 q=-1.0 size=29576448kB time=07:33:56.46 bitrate=8895.8kbits/s speed=74.8x    frame=1636368 fps=4486 q=-1.0 size=29622016kB time=07:34:32.94 bitrate=8897.6kbits/s speed=74.8x    frame=1638455 fps=4486 q=-1.0 size=29665280kB time=07:35:07.73 bitrate=8899.2kbits/s speed=74.8x    frame=1640537 fps=4486 q=-1.0 size=29708544kB time=07:35:42.43 bitrate=8900.9kbits/s speed=74.8x    frame=1642714 fps=4485 q=-1.0 size=29753856kB time=07:36:18.71 bitrate=8902.7kbits/s speed=74.8x    frame=1644795 fps=4485 q=-1.0 size=29797120kB time=07:36:53.40 bitrate=8904.3kbits/s speed=74.7x    frame=1646952 fps=4485 q=-1.0 size=29842176kB time=07:37:29.34 bitrate=8906.1kbits/s speed=74.7x    frame=1649146 fps=4485 q=-1.0 size=29887744kB time=07:38:05.91 bitrate=8907.9kbits/s speed=74.7x    frame=1651142 fps=4484 q=-1.0 size=29929216kB time=07:38:39.18 bitrate=8909.4kbits/s speed=74.7x    frame=1653289 fps=4484 q=-1.0 size=29973760kB time=07:39:14.96 bitrate=8911.1kbits/s speed=74.7x    frame=1655392 fps=4483 q=-1.0 size=30017536kB time=07:39:50.02 bitrate=8912.8kbits/s speed=74.7x    frame=1657398 fps=4483 q=-1.0 size=30059264kB time=07:40:23.44 bitrate=8914.4kbits/s speed=74.7x    frame=1661984 fps=4489 q=-1.0 size=30101504kB time=07:41:39.88 bitrate=8902.3kbits/s speed=74.8x    frame=1662390 fps=4490 q=-1.0 Lsize=30104305kB time=07:41:46.64 bitrate=8900.9kbits/s speed=74.8x    
video:29381185kB audio:667460kB subtitle:0kB other streams:0kB global headers:0kB muxing overhead: 0.185235%
